<?xml version="1.0" encoding="utf-8"?>
<!-- Generator: Adobe Illustrator 16.0.0, SVG Export Plug-In . SVG Version: 6.00 Build 0)  -->
<!DOCTYPE svg PUBLIC "-//W3C//DTD SVG 1.1//EN" "http://www.w3.org/Graphics/SVG/1.1/DTD/svg11.dtd">
<svg version="1.1" id="Layer_1" xmlns="http://www.w3.org/2000/svg" xmlns:xlink="http://www.w3.org/1999/xlink" x="0px" y="0px"
	 width="730px" height="1008.82px" viewBox="0 0 730 1008.82" enable-background="new 0 0 730 1008.82" xml:space="preserve">
<g>
	<path fill="#FFFFFF" d="M392.787,57c0,0,48,14,98,116c0,0,70,122,202,164c0,0,46,16,22,76l-52,68c0,0,0,344-58,454l-6-74
		c0,0-30,4-52,50l-38-56c0,0-40,54-30,72c0,0-8-42-14-48c0,0-5,20-2,31c0,0-19-52-25-60c0,0-6,66-9,72c0,0-4-52-14-56s0-4,0-4
		s-20,38-16,54c0,0-14-28-11-43c0,0-18,37-13,43c0,0-12-41-18-44l-11,44l-15-31l-26,58l2-81l-5,27l-24-20l-26,37c0,0-4-30-13-30
		c0,0-15,46-5,48c0,0-66-134-65-180s-19-80-19-80l-81-226c0,0-12-30,3-48s23-15,23-15l10-16l15-7l18-21l14-13l15-7l34-22v-12l71-72
		c0,0,32-137,88-148H392.787z"/>
	<path d="M356.787,87c0,0-18,37-14,44s13,6,13,6l12-17l6-23C373.787,97,368.787,81,356.787,87z"/>
	<path d="M391.787,99c0,0,4-15,11-8c0,0,10,15,13,28c0,0,4,29-8,25c0,0-16-17-15-25S391.787,99,391.787,99z"/>
	<path d="M372.787,144c0,0,0,10,5,10s5-7,5-7l-2-11L372.787,144z"/>
	<path fill="none" stroke="#000000" stroke-width="3" stroke-miterlimit="10" d="M350.787,79c0,0,11-7,17-6"/>
	<path fill="none" stroke="#000000" stroke-width="3" stroke-miterlimit="10" d="M393.787,74c0,0,16,3,16,8"/>
	<path fill="#D59B75" d="M62.787,401c0,0-11,9-10,16s7,13,7,13l6-13l0.5,10l4,6.5l4.5-1.5v-12l2,12l7.5,2.5l3.5-1.5l1-16.5l1,16
		l8.5,0.5l6-4l-0.5-10.5l3.5,5.5l-10.5,12.5l-7,2l1,5.5l15.75-1.75l7.5-8.25l0.25-10.5l-3.5-11l-6-12.5l-16-4.5l-13.5-0.5l-11.5,3.5
		"/>
	<path fill="#F36E21" d="M46.287,535c0,0,11-103.5,21.5-103.5l-4-10l-4,8.5l-3.5-5c0,0-20.5,74.5-21,110.5c0,0-11,5-5.5,15
		c0,0-67,72.5,35.5,132l64.5-1c0,0,40-34.5,41-51s4-61.5-31-87c0,0,4.5-8.5-2-11l-3.5-1.5c0,0,5-90-19-100l-9.75-5.5l-4.5,6l11.25,5
		l2.5,7.5c0,0,18,66.5,10.5,87.5L46.287,535z"/>
	<polygon fill="#F3DE09" points="52.287,561.5 43.787,586 70.787,585.5 	"/>
	<polygon fill="#F3DE09" points="107.787,560.5 94.787,583 122.287,583.5 	"/>
	<polygon fill="#F3DE09" points="84.787,594 72.787,619 98.787,619.5 	"/>
	<path fill="#F3DE09" d="M48.287,613c0,0,19,28,43.5,25.5l-0.5,8l7-1V637c0,0,20.5-14.5,22-19c0,0,10,30.5-22.5,41.5l-20.5-0.5
		l-2-7.5l-4-1.5l-0.5,6C70.787,656,42.787,643,48.287,613z"/>
	<path fill="#D59B75" d="M672.786,360.999c0,0-20.667,28.667-20,34s7.334,5.333,7.334,5.333l10.666-14.667l10-4.667l4.667,10
		l2.667,18.667l1.333,29.333v4l8.667-6.667l-5.334,13.333l4,7.333l6-10l1.334,7.333h4.666l7.334-18l2-30v-25.333l-6.667-17.333
		l-12.667-16C698.786,347.666,680.119,348.332,672.786,360.999z"/>
	<polyline fill="none" stroke="#000000" stroke-width="3" stroke-miterlimit="10" points="345.845,178.134 357.456,185.001 
		360.789,194.334 365.456,201.001 371.456,206.334 382.789,206.334 389.456,199.001 395.456,199.001 400.789,191.001 
		401.456,185.001 406.789,181.001 	"/>
	<path fill="#E0E0E0" d="M216.851,692.608c0,0,64.496-206.99,70.496-316.484s1.5,197.99-16.499,257.987
		S252.85,767.604,239.35,790.103S216.851,692.608,216.851,692.608z"/>
	<path fill="#E0E0E0" d="M284.347,836.601c0,0,22.499-301.484,23.999-383.98s6-131.994,6-131.994l-13.5,523.474v26.999
		C300.846,871.099,296.346,839.6,284.347,836.601z"/>
	<path fill="#E0E0E0" d="M342.844,292.128c0,0-4.5,568.471,19.499,592.47c0,0-26.998-4.499-29.998-59.997
		S342.844,292.128,342.844,292.128z"/>
	<path fill="#E0E0E0" d="M383.342,296.628c0,0,22.5,478.476,47.998,502.475c0,0-40.498,26.999-25.499,44.998
		c0,0-25.499-44.999-20.999-95.996S383.342,296.628,383.342,296.628z"/>
	<path fill="#E0E0E0" d="M450.839,302.627c0,0,25.498,488.976,34.498,500.975s10.499,35.998,17.999,37.498
		c0,0-41.998,13.499-41.998-22.499s0-35.998,0-35.998L450.839,302.627z"/>
	<path fill="#E0E0E0" d="M510.835,410.622c0,0,35.998,334.483,56.997,334.483c0,0-15,61.498-1.5,73.497
		c0,0-38.997-7.5-47.997-88.496S510.835,410.622,510.835,410.622z"/>
</g>
</svg>
