<?xml version="1.0" encoding="utf-8"?>
<!-- Generator: Adobe Illustrator 16.0.0, SVG Export Plug-In . SVG Version: 6.00 Build 0)  -->
<!DOCTYPE svg PUBLIC "-//W3C//DTD SVG 1.1//EN" "http://www.w3.org/Graphics/SVG/1.1/DTD/svg11.dtd">
<svg version="1.1" xmlns="http://www.w3.org/2000/svg" xmlns:xlink="http://www.w3.org/1999/xlink" x="0px" y="0px"
	 width="1158.871px" height="1008.82px" viewBox="0 0 1158.871 1008.82" enable-background="new 0 0 1158.871 1008.82"
	 xml:space="preserve">
<g id="Layer_1">
	<path fill="#3F2D1D" d="M369.458,90.129c0,0,28.499,55.498,43.498,59.997s-1.5,37.498-1.5,37.498l28.499-50.998
		C439.955,136.627,432.455,93.129,369.458,90.129z"/>
	<path fill="#3F2D1D" d="M405.131,195.655c0,0-39.925,64.854-33.045,69.058c6.879,4.204,8.496,17.257,25.665,11.76
		s-37.466,19.157-43.869-3.167c-6.403-22.323,0.623-23.117,0.623-23.117L405.131,195.655z"/>
	<polygon fill="#CFAA7F" points="302.462,100.629 383.457,82.63 405.956,126.127 420.955,153.126 418.236,174.329 411.456,187.625 
		381.957,231.122 359.459,255.121 345.959,256.621 354.959,261.121 357.959,273.12 366.958,277.62 357.959,306.119 270.963,352.616 
		249.964,328.617 245.465,274.62 239.465,234.122 273.963,142.627 	"/>
	<path fill="#FFFFFF" d="M299.902,8.995l64,8l88,18l-16,96c0,0-28-48-96-38l-86,20L299.902,8.995z"/>
	<polygon fill="#D32927" points="378.957,40.631 389.238,41.996 389.904,54.663 403.238,55.996 401.904,65.996 388.571,63.996 
		389.238,75.996 378.957,75.129 377.457,61.63 365.457,60.13 363.958,49.631 377.904,52.663 	"/>
	<path fill="#3F2D1D" d="M329.46,97.629c0,0-23.999,32.999-43.498,41.998c0,0-17.999,18,9,50.998c0,0-19.499,0-35.998-28.499
		c0,0,16.499,43.498,16.499,67.497s-10.499,65.997,6,73.496s37.498,22.499,37.498,22.499s-59.997,0-65.997-46.498l-13.499-44.998
		l10.499-62.997l3-52.498l0.938-5.633L329.46,97.629z"/>
	<path fill="#629AA6" d="M242.465,229.122l-52.497,21c0,0-31.497-7.499-50.997,4.5S45.975,412.114,45.975,419.613
		s50.998,61.497,50.998,61.497l16.499,9l17.999-26.999l7.5-29.999l4.499-10.499l4.5,25.499l4.5,9c0,0,13.498,80.996,26.998,97.495
		c0,0,17.998,151.493,14.999,166.492c0,0,31.499,262.487,52.498,274.486c0,0,100.494-6.001,148.492-16.499l128.994-25.499
		c0,0,10.499-320.984-107.995-410.979c0,0,23.999-16.499,23.999-64.497l8.999-10.5l41.998,16.499h22.499l19.499,22.499
		l67.497-52.498L497.452,332.618c0,0-50.998-55.497-98.995-58.497l-23.999,29.999l-100.495,47.998l-35.998-19.499L242.465,229.122z"
		/>
	<polygon fill="#FFFFFF" points="206.467,241.123 186.968,284.621 233.465,275.621 197.467,319.119 273.963,352.117 
		299.462,341.618 365.459,350.617 374.458,304.12 385.744,310.095 399.957,317.619 414.956,314.619 411.956,299.62 401.902,274.995 
		375.902,263.995 368.958,272.62 359.959,301.119 273.963,347.616 249.965,329.618 246.965,277.121 242.465,229.122 	"/>
	<path fill="#FFFFFF" d="M387.958,368.616l8.999,26.999v130.494c0,0,55.496,80.996,52.497,131.993s6,85.496,6,85.496l14.999,92.995
		c0,0-38.998,32.998-134.993,37.498l-101.995,6l-10.499-32.999c0,0-2.999-95.995-11.999-115.494s-9-29.999-9-29.999l-22.499-137.993
		l4.5-23.999l-16.499-113.995l3-50.997l44.997-95.996l-37.498,94.496c0,0,184.49,6,197.99-1.5s3-20.999,3-20.999l-4.5-46.498
		l10.5-1.5L387.958,368.616z"/>
	<path fill="#CFAA7F" d="M37.902,447.995c0,0-27,65-28,78s28.072,75.11,28.072,75.11s52.497,130.493,59.997,152.992
		s39.931,23.897,39.931,23.897l27.566,3.101l29.998,12h7.5l-9.064-14.101l14,11l15,5l2-7l-11-9l-7-7h4l8,7h7v-13l-14-12l-7-5l-10-5
		l22,8l2-9l-7-6l-12-7l-14-3l-43,1l-7-10c0,0-75-168-63-191s13-33,13-33L37.902,447.995z"/>
	<path fill="#CFAA7F" d="M617.902,473.995c0,0,27,37,21,69c0,0-44,178-50,181c0,0,6,19-40,12c0,0-25,7-48,32h-12c0,0,11-16,16-22
		s15-15,15-15l-4-5c0,0-27,29-30,34s-11,10-11,7s3-17,7-21s10-16,10-16l-18,21c0,0-18,11-15-3s18-24,18-24l10-18l7-2l-2-4l-16,13
		l-11,7h-5l-4-6l12-14l9-6l14-12l20,5c0,0,30,6,36,7s6,1,6,1l20-70c0,0,7-98,13-100l-15-10L617.902,473.995z"/>
	<polygon fill="#FFFFFF" points="45.975,419.613 37.902,447.995 86.902,497.995 102.902,480.995 	"/>
	<polygon fill="#FFFFFF" points="544.902,495.995 568.902,519.995 617.902,473.995 597.902,452.995 	"/>
	<polygon fill="#D32927" points="315.961,515.607 314.461,548.605 321.96,554.605 	"/>
	<polygon fill="#D32927" points="254.464,598.103 248.464,644.601 257.463,650.601 	"/>
	<polygon fill="#D32927" points="333.96,679.099 333.96,725.597 341.459,739.096 342.959,722.597 	"/>
	<path fill="#CFAA7F" d="M841.902,137.995l5,26l65,25l62-29l-3-43C970.902,116.995,896.902,68.995,841.902,137.995z"/>
	<path fill="#CFAA7F" d="M872.902,247.183c0,0,19,40.375-37,64.812l97-4.25c0,0,85-2.125,95-15.938c0,0-40-13.812-45-26.562
		s-16-38.25-16-38.25s-27,40.375-40,40.375S874.902,250.37,872.902,247.183z"/>
	<path fill="#CFAA7F" d="M839.902,150.995c0,0-12-9-14,9s13,20,16,21s5-17,5-17"/>
	<path fill="#CFAA7F" d="M978.902,137.995c0,0,17-7,13,9s-7,24-11,25s-7-20-7-20L978.902,137.995z"/>
	<path fill="#629AA6" d="M838.902,144.995c0,0,75-90,140-12c0,0,6,3,9,2s25-21,25-21s1-18-7-17v-12c0,0-48-63-94-63c0,0-56-1-84,47
		c0,0-22,31-21,46S838.902,144.995,838.902,144.995z"/>
	<path fill="#629AA6" d="M849.902,168.995c0,0,61,16,63,21c0,0,58-33,62-29c0,0,10,50-5,64c0,0-32,42-42,42c0,0-55-13-62-26
		c0,0-20-36-19-41S849.902,168.995,849.902,168.995z"/>
	<path fill="#629AA6" d="M835.902,307.995c0,0-46,19-56,15l-51,33c0,0-69,338-61,382c0,0,62-22,72-8c0,0-9,34-13,32l4,2
		c0,0,25-43,27-52s7-43,7-43l-19,250l119-15h162l5,7l66,10c0,0-16-222-22-234s-13-27-13-27l36,57l16-4l5-15c0,0,37-98,30-146l-4-73
		c0,0-27-135-39-144c0,0-51-45-79-46C1027.902,288.995,1027.902,309.995,835.902,307.995z"/>
	<path fill="#CFAA7F" d="M1058.902,590.995c0,0,11-16,26-9s31,30,18,54c0,0-15,16-39,18l-19,33c0,0-15,13-47,3l-6-10v-20l-4,26
		l-21-26c0,0,12-26,20-32s26-19,26-19h13c0,0,28-15,31-14S1058.902,590.995,1058.902,590.995z"/>
	<path fill="#CFAA7F" d="M684.902,732.995l-17,169l16,16l21,7l19,2l11-37l-5-20l-8-24l-6-19v-38l7-29l9-29
		C731.902,730.995,720.902,718.995,684.902,732.995z"/>
	<polygon fill="#D32927" points="866.902,384.995 854.902,446.995 866.902,468.995 	"/>
	<polygon fill="#D32927" points="892.902,490.995 884.902,524.995 888.902,542.995 896.902,520.995 	"/>
	<polygon fill="#D32927" points="844.902,664.995 842.902,732.995 852.902,742.995 852.902,718.995 	"/>
</g>
<g id="Layer_2">
</g>
</svg>
