<?xml version="1.0" encoding="utf-8"?>
<!-- Generator: Adobe Illustrator 16.0.0, SVG Export Plug-In . SVG Version: 6.00 Build 0)  -->
<!DOCTYPE svg PUBLIC "-//W3C//DTD SVG 1.1//EN" "http://www.w3.org/Graphics/SVG/1.1/DTD/svg11.dtd">
<svg version="1.1" xmlns="http://www.w3.org/2000/svg" xmlns:xlink="http://www.w3.org/1999/xlink" x="0px" y="0px"
	 width="666.143px" height="990.143px" viewBox="0 0 666.143 990.143" enable-background="new 0 0 666.143 990.143"
	 xml:space="preserve">
<g id="Layer_1">
	<path fill="#C6C6C5" d="M211.253,316.357c0,0-19.499-17.999,32.999-98.995c0,0,20.999-116.994,37.498-143.993
		c0,0-44.998-13.5-44.998-19.499s-26.999-23.997,4.5-46.498S283.25,28.37,281.75,38.87s13.5,17.999,13.5,17.999
		s43.497-28.498,52.497-26.999s53.998,13.499,61.497,20.999c0,0,22.499-35.998,41.998-40.498c0,0,28.499-4.5,29.999,17.999
		c0,0-0.001,46.498-55.498,40.498c0,0,71.996,173.991,62.997,229.488s-8.999,17.999-8.999,17.999l17.998,35.999
		c0,0,39.131,44.928,13.396,121.961c-0.445,1.334-0.911,2.679-1.396,4.033c-28.498,79.496-29.998,89.996-29.998,89.996
		s5.999,95.995,23.998,127.494c17.999,31.498,22.499,271.486,22.499,271.486s-25.499,19.498-167.991,16.498
		c0,0-172.491,1.5-178.491-11.999l8.999-148.492l19.5-101.995c0,0,35.998-85.495,40.498-91.495s29.999-80.997,10.5-104.995
		s-29.999-64.497-28.499-76.496s0-43.498,0-43.498v-44.998l12-22.499L211.253,316.357z"/>
	<path fill="#F2D6C0" d="M259.427,725.224c0,0,15.333,1.334,10.667-10l-42-13.334v-4l51.333,10c0,0,12-2.666,6.667-11.332l-50-16
		l-1.333-2.668h14.667l36,16c0,0,10.667-2.666,8.667-8.666s-18-11.334-23.333-14s-30.667-8-30.667-8l4-4.666
		c0,0,4-3.334,16.667-3.334s17.333,1.334,17.333,1.334s10-1.334,4.667-8c0,0-22.667-20-40.667-8s-20.667,11.332-20.667,11.332
		l-30,21.334l-12-2.666c0,0-89.333-100.668-97.333-151.334c0,0,112-101.333,123.334-97.333c0,0,24,28.667,24,38s1.333-100,1.333-100
		l12-22l-27.333-20.667c0,0-52.172,12.631-97.17,74.127c0,0-106.495,71.997-115.494,137.993c0,0,137.993,203.99,187.491,191.99
		c0,0,61.497-1.5,70.497,6"/>
	<path fill="#F2D6C0" d="M272.25,401.852c0,0,29.999-31.499,104.994,7.5c0,0,70.496-22.499,94.496-20.999
		c23.998,1.5,20.499,4,20.499,4s-2.544-27.294-45.498-60.997c-32.499-25.499-39.498-58.497-37.998-70.497
		c0.745-5.961-0.687-5.578,25.499-82.496c0,0-91.496-136.493-124.494-101.995c-32.999,34.498-22.499,21-22.499,41.998
		S267.75,248.859,267.75,248.859L272.25,401.852z"/>
	<path fill="#F2D6C0" d="M487.094,303.224c0,0,36-10,70,38c0,0,42,69,42,78c0,0,60,95,61,114c0,0,17,13-6,67l-57,124
		c0,0-21,44-41,44c0,0-39-59-50-57l-29,20c0,0-10,11-12-3s24-29,24-29l9-2l27,13l21,9c0,0,55-96,62-165c0,0-56-97-69-98s-9-10-9-10
		s-23-90-28-92S472.094,319.224,487.094,303.224z"/>
	<path fill="#F8E100" d="M303.749,69.868c0,0-12,67.496,34.498,82.496s52.498,1.5,67.497,13.5s22.499,14.999,22.499,26.999
		s-26.498,61.997-20.499,85.996s5.999-6,7.499,15s7,51.997,38.498,65.497c31.499,13.5,37.499,22.499,37.499,32.999
		s26.999,14.999,26.999,46.498s-4.5,49.498,19.498,49.498c0,0-13.498-26.999,1.5-41.998c0,0,9-44.998-20.998-68.997
		c-29.999-23.999-29.999-26.998-32.999-32.998l-16.499-25.499c0,0,4.5-53.997-7.5-59.997c0,0,0-89.996-7.5-101.995
		c-7.499-12-13.498-86.996-74.996-95.995C378.745,60.869,360.747,44.37,303.749,69.868z"/>
	<path fill="#F8E100" d="M301.249,77.868c0,0-12,91.496-13.5,98.995s23.999,35.998,19.499,71.996s-19.499,56.997,23.999,91.496
		c0,0,19.499,7.5,19.499,22.499c0,0-25.499-23.999-40.498-22.499s-34.499-7.5-32.999-20.999c0,0,28.499,29.999,13.5,50.998
		s-55.498,82.496-41.998,110.995s15,47.998,15,47.998s-55.498-80.996-32.999-124.494s25.499-50.998,25.499-50.998l-6-37.498
		c0,0-16.499-62.998-4.5-76.497s19.499-40.498,19.499-40.498S268.25,95.867,301.249,77.868z"/>
	<path fill="#FFFFFF" d="M272.25,401.852c0,0,26.844-27.627,108.844,7.373c0,0,94-31,104-15s-2,79-23,105c0,0-21,133-88,140
		c0,0-66-12-75-142c0,0-31-39-31-55S272.25,401.852,272.25,401.852z"/>
	<path fill="#F7CD0F" d="M479.094,735.224c0,0,41,13,64,80c0,0-27,40-151,93C392.094,908.224,464.094,742.224,479.094,735.224z"/>
	<path fill="#7C5B44" d="M508.094,710.224c0,0,59,51,62,91l-29,19c0,0-20-70-65-80c0,0-5-6,3-10S508.094,710.224,508.094,710.224z"
		/>
	<path fill="#F7CD0F" d="M254.094,742.224l83,160c0,0-121-43-147-85S246.094,731.224,254.094,742.224z"/>
	<path fill="#7C5B44" d="M190.094,817.224c0,0,12-59,64-75c0,0-2-24-18-28s-30,6-30,6s-47,51-42,81L190.094,817.224z"/>
	<path fill="#CD5527" d="M241.094,771.224c0,0-19,13,5,29c0,0,14,8,15-6C261.094,794.224,260.094,771.224,241.094,771.224z"/>
	<path fill="#CD5527" d="M230.094,814.224c0,0-8,20,6,27s15,7,16,0s-1-26-9-28S230.094,814.224,230.094,814.224z"/>
	<path fill="#CD5527" d="M267.094,846.224c0,0,8,17,21,14s11-9,12-13s-13-19-21-18S267.094,840.224,267.094,846.224z"/>
	<path fill="#CD5527" d="M477.094,771.224c0,0-19,22-7,34c0,0,11,2,23-14S484.094,769.224,477.094,771.224z"/>
	<path fill="#CD5527" d="M484.094,818.224c0,0-22,16,0,28c0,0,17-7,17-14S497.094,811.224,484.094,818.224z"/>
	<path fill="#CD5527" d="M443.094,832.224c0,0-22,15-8,31c0,0,18,4,24-13S458.094,835.224,443.094,832.224z"/>
</g>
<g id="Layer_2">
</g>
</svg>
