<?xml version="1.0" encoding="utf-8"?>
<!-- Generator: Adobe Illustrator 16.0.0, SVG Export Plug-In . SVG Version: 6.00 Build 0)  -->
<!DOCTYPE svg PUBLIC "-//W3C//DTD SVG 1.1//EN" "http://www.w3.org/Graphics/SVG/1.1/DTD/svg11.dtd">
<svg version="1.1" id="Layer_1" xmlns="http://www.w3.org/2000/svg" xmlns:xlink="http://www.w3.org/1999/xlink" x="0px" y="0px"
	 width="766px" height="745px" viewBox="0 0 766 745" enable-background="new 0 0 766 745" xml:space="preserve">
<path fill="#503833" d="M218,86l-33.5,15.5l-9,53.5h-3c0,0-11.5-14.5-14-14.5s-8-0.5-10,9c0,0-8-8.5-9.5-19.5c0,0,39.5-52,75.5-50.5
	S218,86,218,86z"/>
<path fill="#ECB647" d="M155,37c0,0,9,26-9,40v-7l-4-5l-3-15l-3,15v6l-8,1c0,0,2,15,6,15s1,41,5,43c0,0,33-44,75-44c0,0,98-10,70,41
	c0,0,19-25,2-41c0,0,1-21-10-31l-9.5-20.5L274,35L257,9l-1.5,5.5L251,16l0.5,7l9,6L260,49c0,0-18,3-29-4.5l-4.5-4l17-7.5L228,29
	l-1-6c0,0-5-11-15.5-11.5c0,0,0.5,11.5-4,13.5l6.5,6.5l-18,3l16.5,6c0,0-15.5,26-39,5.5L169,31.5l7-8l-0.5-9.5l-9.5,2.5l-1-10
	l-10.5,6l1.5,11l-8.5,4l1,10.5L155,37z"/>
<polygon fill="#433162" points="253,312 274,312 319,586 303,590 "/>
<path fill="#503833" d="M278.5,137c0,0,0-47-26.5-51c0,0,54.5-3,32,48.5L278.5,137z"/>
<path fill="#503833" d="M161,184c0,0,1,14,8,23l1.5-18C170.5,189,164,190,161,184z"/>
<path fill="#D59B75" d="M255.334,315l7.334-84.667c0,0,22-22.666,19.333-55.333c0,0,1.999,4,5.333-4.667c0,0,6.666-35.333-6-32.667
	c0,0-2.733-48.675-29.334-51.667c-26.666-3-34,0-34,0s-29.668,2.667-33.5,15.5s-9.832,55.5-9.832,55.5s-13.002-16.334-16.168-16.5
	s-10.5,1.167-9.166,11.167S154.332,189,170.5,189l0.168,20l60.666,69.333l19.334,19.333L255.334,315z"/>
<path fill="#433162" d="M52,367c0,0-39,190-35,246c0,0,5,107,6,112s14-13,30-13s72-31,118-28c0,0,10,1,11-2
	s26.338-12.666,30.669-10.333c0,0-8.997-261.333,6.667-278s-1.664-24.999-8-21.333L157,360l-31-10l-21-1H80H66l-16,5L52,367z"/>
<polygon fill="#7F2626" points="473.993,453 467.327,467 474.66,478.333 445.993,608.333 477.993,627 481.993,533 503.327,477 
	481.327,453 "/>
<path fill="#C5AC92" d="M168,207l-5.665,3.333V249l56.666,46.667c0,0,38.999,16,38.333,19.333s-5.335-19.334-5.335-19.334L168,207z"
	/>
<path fill="#DBDAD5" d="M162.335,249c0,0-107.671,18.667-110.337,83.333c0,0,87.333,0.667,94,6s67.529,15.687,70.667,20
	C221.999,365.667,243,370,221,428c0,0-2,56,4,68l9,79l7,100c0,0,27,22,54-1s16.334-11,16.334-11s-26.002-301.333-56.002-339.333
	L255.999,313C255.999,313,180.666,268.333,162.335,249z"/>
<path fill="#C5AC92" d="M260,247c0,0,53.998,50-5.001,65L260,247z"/>
<path fill="#DBDAD5" d="M281,278c0,0,74,63,61,107c0,0,29,141,18,196l1,6l-20-8l-30,10c0,0-18-192-28-213l-23-56l-5.001-8
	c0,0,23.168-8.167,24.501-15.5C280.573,290.597,281,278,281,278z"/>
<path fill="#F4C87A" d="M51.998,330.334c0,0-5.328,29.333-2.662,32.667s8-5.333,8-5.333l10-2.667c0,0,11.999,4.667,14.666,0
	c0,0,6.668,1.333,9.334-2c0,0,6.666,0.667,9.333-1.333c0,0,12.001,4.667,14.667,0c0,0,7.334,7.333,12,5.333
	c0,0,11.999,4.667,12.666,0c0,0,4.666,6.667,10,6c0,0,6.666,6.667,12,3.333c0,0,10,6.667,12,2c0,0,9.334,5.333,10.667,0.667
	c0,0,8.667,8,14,2.667c0,0,10.667,6.667,12.667,0.667c0,0,12,10,8,21.333S212.002,417,212.002,417l-2,33.333v20l-1.332,133.333
	l3.999,68L241,675l-6.997-105.333l-4-34L228.669,513l-4.333-21.333l-3-19.333v-14.667v-19.333L223.003,423l5.666-14.667L232.336,385
	l-3.667-16l-9.333-13.333l-6,0.667l-10-3.333l-40.667-10.667l-16.671-6l-11.995-4l-20-2.667l-15.334,0.667L73.003,332
	L51.998,330.334z"/>
<g>
	<path fill="#F4C87A" d="M427.996,613.001c0,0-8,29.333-7.334,36.666s22.666,14,26.666,12s6.667-48,6.667-48
		S452.664,606.335,427.996,613.001z"/>
	<path fill="#962E2E" d="M447.328,661.667l27.331,10.667L477.993,627l-26.664-16.667C451.329,610.334,455.993,641,447.328,661.667z"
		/>
</g>
<polygon fill="#F4C87A" points="151.5,29.5 151.5,34.5 156.5,31.5 160,32 165.5,54.5 160.5,74 150.5,83.5 152,87 165.5,77.5 
	183.5,70 191.5,68 191.5,63 182,65.5 172,53 164.5,28.5 171.5,22.5 170,18 163.5,21.5 161,13.5 158,14.5 158,25.5 "/>
<polygon fill="#F4C87A" points="208,64.5 248.5,65 248,58.5 231.5,52.5 223.5,41.5 226.5,35.5 221,25.5 216.5,35 217.5,39 
	212.5,54.5 204.5,56 "/>
<path fill="#F4C87A" d="M262,67l20,14c0,0-5.5-18-8-19s-4-11-4-11l-4-10l-2,0.5V52v9L262,67z"/>
<polygon fill="#7F2626" points="719.993,433 701.993,467 681.993,429 "/>
<path fill="#962E2E" d="M561.995,505c0,0,63.334-91.333,126.667-76l33.333,73.333L755.328,712c0,0-56.666,1.333-66.666-9.333
	s-44.001-14-47.334-12.667s-35.334-17.333-50-8s-24.667,3.667-28,3.667"/>
<path fill="#936A4F" d="M502,419c0,0,17-21,12-52s-12-58-12-58l-10-7l1-13l2-23l7-30l5-14l19-23l35,1h12l6,12l7,5l16,7v18
	l7.335,16.333L608,270l11,11l-3,28l-10-2l-7,9v20v10C599,346,559,413,502,419z"/>
<path fill="#F4C87A" d="M729.329,436.333c0,0-6.666,6-14-0.667c0,0-12.666,4.667-16-5.333c0,0-8.001,5.333-21.334-0.667
	c0,0-10,9.333-23.333,4c0,0-6.001,12-18.667,8c0,0-11.332,11.334-20.666,8.667c0,0-4,16.666-18,17.333c0,0-4,9.333-14,10
	c0,0-0.001,10-9.334,12.667c0,0-5.332,12.667-10.666,12.667l3.999,31.334c0,0,11.334,131.667,8,144.333S559.333,687,559.333,687
	l-12.672-160.666L563.994,465l77.334-51.333l36-4.667l36-2l8.673,5.666l9.993,21.667L729.329,436.333z"/>
<path fill="#DBDAD5" d="M588.001,363.333c0,0,10.666-19.333,20.666-19.333s23.332,12,23.333,15c0,0,68.001,4.333,90.001,53.667
	s2.666,4.667,2.666,4.667s-119.334-26.667-170,84c0,0-7.333,11.333,2,30L561.333,688c0,0-55.334-32.667-79.334-20.667l-6.667,4
	c0,0-14.668-118,8.666-152.667c0,0,31.333-60-6.001-59.333l-10-0.667l24.666-45.333
	C492.663,413.333,557.339,389.333,588.001,363.333z"/>
<polygon fill="#F4C87A" points="132,75 135,81.5 139.5,89 139,99 144.5,92.5 145.5,90 144.5,86.5 141.5,84.5 142.5,72 139,76.5 "/>
<path fill="#ECB647" d="M480.667,194.333l0.334-25.667l-3.667-2l1-8l6.667,2.333l0.333,6.667c0,0,21.666,4,14.333-31.667l-3-1.667
	l2-8.667l8.667,5.333l-1.333,3.667c0,0,19.333,26.667,38.333-6L546.001,116l-4.667-6.667l8-9.333l8,9.667L554.667,116l2.334,12.667
	c0,0,18.999,29.667,39.666,9l1.334-3.667l-2-6.333l7.333-2l4,7.667l-4,1.667c0,0-1,42.666,18,29.333l-1-3.333h9l-2,6.333l-3-0.667
	c0,0-6.333,23,3.667,29.333l-3,2.667C625.001,198.667,480.333,203.666,480.667,194.333z"/>
<path fill="#F4C87A" d="M551.334,129.333c0,0-5.999,17-18.333,19.667v9c0,0,24.333-3,33.333,0.667l1-11.333
	C567.334,147.333,554.001,145,551.334,129.333z"/>
<path fill="#F4C87A" d="M505.334,146.333c0,0,4.001,14-0.333,19l2,3l15.333-8l-1.667-5
	C520.667,155.333,509.667,152.333,505.334,146.333z"/>
<path fill="#F4C87A" d="M584.667,163l2.667-10c0,0,6.333,2.334,12.333-11.333c0,0-2.333,16.667,1.667,18L598.001,169L584.667,163z"
	/>
<path fill="#F4C87A" d="M484,173.333c0,0,2,5.667,1,8.667s6.333-7,6.333-7L484,173.333z"/>
<path fill="#F4C87A" d="M618.333,172.667l-4,6l4.667,4.667C619,183.333,616.999,176.667,618.333,172.667z"/>
<path fill="#DBDAD5" d="M451.329,610.334c0,0,9.334-91.333,25.334-108s10.666-27.333,8.666-28.667s-14-8-14-8
	s-37.333-3.333-41.333,18.667c0,0-18.001,14.667-16.667,31.333c0,0-10.666,18-9.333,37.333s-8.667,30-8.667,30l1.334,16l31.333,14
	C427.996,613.001,447.329,607.667,451.329,610.334z"/>
<path fill="#301E11" d="M543,203l-19,2c0,0-1,10-21,27c0,0,0,30-8,38l3,19l-6,13c0,0,10,10,14-2c0,0,1,18,8,23c0,0,11,63,3,69
	l-11,26c0,0-11,18-23,17c0,0,4,22-8,24c0,0-6,21-11,23c0,0-19,17-30-2c0,0-22,14-27-5c0,0-25-1-8-15c0,0-13-15,3-18c0,0-7-13,13-17
	c0,0-11-15,3-26c0,0-8-22,11-22c0,0-15-15,3-18c0,0-11-17,7-21c0,0,1-19,16-20c0,0-5-20,8-20c0,0-9-23,10-27c0,0-13-7-8-14
	c0,0-21-21,5-30c0,0-18-40,18-31c0,0-3-15,10-14c0,0,4-11,10,0c0,0,9-20,25-4c0,0,7-16,26-5c0,0,19-2,22,7c0,0,20-4,25,9
	c0,0,16-2,21,10c0,0,24,4,13,26c0,0,16,16,0,32c0,0,22,16,21,33c0,0,37,25,20,75l3,12c0,0-28-17-52-17c0,0-25-26-31-9l-9-1l10-54
	c0,0,3,20,15,2c0,0,6-21-11-11l1-26c0,0-9-3-8-9s1-6,1-6l-3-16c0,0-12,2-18-18l-3-8L543,203z"/>
<path fill="#936A4F" d="M427.996,613.001l-51.328-22.667L338.001,579c0,0-34,7.333-33.333,13.333s2,15.333,2,15.333
	s24.667,4,32.667-2l32,9.334c0,0,23.333,4,23.333,12.667s4,9.333,4,9.333l15.333,8.667l6.661,4L427.996,613.001z"/>
<path fill="#D59B75" d="M307.335,660.333c0,0,32.999,12.333,35.666,13s26.334,4.333,26.334-4.333s3.333-4.667,3.333-4.667l-16,2
	l-23.333-16l23.333,13.333c0,0,20.001,4,20.667-8l-18.667-9.333l-16.667-10.667c0,0,36.667,21.334,40.667,16.667l6.667-6.667
	l-20-14.667l-11.334-7.333c0,0,32.001,22.667,35.334,15.333c0,0,7.333-10.667-8.667-21.333L355.335,609l-16-3.333L324.001,609
	l-17.333-1.333L307.335,660.333z"/>
</svg>
