<?xml version="1.0" encoding="utf-8"?>
<!-- Generator: Adobe Illustrator 16.0.0, SVG Export Plug-In . SVG Version: 6.00 Build 0)  -->
<!DOCTYPE svg PUBLIC "-//W3C//DTD SVG 1.1//EN" "http://www.w3.org/Graphics/SVG/1.1/DTD/svg11.dtd">
<svg version="1.1" id="Layer_1" xmlns="http://www.w3.org/2000/svg" xmlns:xlink="http://www.w3.org/1999/xlink" x="0px" y="0px"
	 width="397.571px" height="107.286px" viewBox="0 0 397.571 107.286" enable-background="new 0 0 397.571 107.286"
	 xml:space="preserve">
<g>
	<path fill="#B0AFB0" d="M23.314,55.505c0,0-13.988-38.652,19.209-34.645c33.197,4.008,41.544,16.416,41.544,16.416
		s102.301-1.284,110.597-1.318c8.295-0.035,95.387-1.785,110.582-4.614s52.494-9.899,52.465-16.812
		c-0.029-6.913,23.468-8.394,23.468-8.394s15.236,6.848,8.395,23.468c-6.844,16.619,4.326,42.31,4.326,42.31
		s2.834,16.578-13.756,16.647c-16.59,0.07-31.856-13.69-45.68-13.633C320.638,74.99,98.034,70.398,82.89,85.669
		s-53.812,25.112-63.52,18.24C9.664,97.039-4.231,80.506,9.542,68.005C23.314,55.505,24.744,66.559,23.314,55.505z"/>
	<path fill="#FFFFFF" stroke="#ABAAAA" stroke-width="2" stroke-miterlimit="10" d="M23.045,50.513c0,0-13.988-38.652,19.21-34.645
		c33.197,4.008,41.544,16.416,41.544,16.416S186.1,31,194.395,30.966c8.296-0.036,95.388-1.785,110.582-4.614
		c15.196-2.829,52.495-9.899,52.466-16.811c-0.029-6.913,23.468-8.394,23.468-8.394s15.236,6.848,8.394,23.468
		c-6.843,16.619,4.326,42.31,4.326,42.31s2.835,16.577-13.755,16.647c-16.591,0.07-31.857-13.69-45.681-13.633
		c-13.825,0.059-236.43-4.533-251.574,10.738c-15.143,15.271-53.812,25.112-63.519,18.24C9.395,92.046-4.5,75.514,9.273,63.013
		C23.045,50.513,24.475,61.567,23.045,50.513z"/>
	<g>
		<path d="M155.12,57.46c-0.038-0.093-0.062-0.172-0.069-0.235c-0.009-0.064-0.014-0.146-0.017-0.247
			c-0.003-0.15,0.008-0.297,0.034-0.441c0.024-0.144,0.056-0.283,0.093-0.42c0.036-0.137,0.072-0.272,0.109-0.406
			c0.036-0.133,0.067-0.268,0.093-0.405c0.032-0.173,0.062-0.343,0.092-0.513c0.028-0.168,0.117-0.305,0.265-0.409
			c0.021-0.007,0.061-0.016,0.118-0.024c0.057-0.008,0.117-0.017,0.182-0.025c0.064-0.008,0.123-0.017,0.177-0.025
			c0.054-0.008,0.091-0.013,0.112-0.013c0.028,0,0.07,0.017,0.125,0.051s0.089,0.066,0.104,0.094
			c0.119,0.206,0.213,0.393,0.281,0.563s0.155,0.38,0.261,0.628l0.078,0.127l0.01,0.451c0.023,0.085,0.055,0.158,0.096,0.218
			s0.087,0.112,0.138,0.158s0.104,0.089,0.159,0.131s0.11,0.091,0.17,0.147c0.051,0.07,0.098,0.143,0.139,0.217
			s0.087,0.143,0.139,0.207c0.051,0.062,0.113,0.117,0.186,0.162s0.17,0.066,0.292,0.063c0.05,0.014,0.152,0.025,0.307,0.036
			c0.154,0.012,0.319,0.023,0.495,0.037c0.176,0.016,0.341,0.027,0.495,0.039c0.154,0.011,0.261,0.02,0.318,0.025l0.096-0.003
			c0.157-0.003,0.309-0.044,0.454-0.122s0.289-0.145,0.432-0.197c0.014-0.016,0.063-0.032,0.148-0.053
			c0.086-0.02,0.136-0.029,0.15-0.029c0.007-0.008,0.04-0.039,0.1-0.094s0.104-0.098,0.132-0.127
			c0.014-0.021,0.036-0.055,0.067-0.098c0.032-0.044,0.063-0.086,0.095-0.125c0.031-0.041,0.059-0.075,0.083-0.104
			c0.024-0.028,0.04-0.048,0.048-0.055c0-0.007,0.001-0.03,0.004-0.07c0.002-0.039,0.007-0.081,0.014-0.124
			c0.006-0.043,0.012-0.082,0.019-0.118c0.006-0.036,0.017-0.058,0.03-0.065c0-0.007,0.007-0.027,0.021-0.06
			s0.027-0.065,0.041-0.097c0.014-0.033,0.027-0.065,0.041-0.098c0.014-0.033,0.021-0.052,0.021-0.06
			c0.006-0.015,0.013-0.043,0.02-0.086c0.006-0.043,0.012-0.088,0.019-0.135c0.006-0.047,0.012-0.09,0.019-0.129
			c0.006-0.039,0.009-0.066,0.009-0.081c-0.001-0.028-0.015-0.083-0.041-0.166c-0.027-0.082-0.041-0.129-0.041-0.144
			c-0.008-0.028-0.017-0.089-0.025-0.182s-0.019-0.193-0.028-0.3c-0.009-0.107-0.019-0.206-0.027-0.295
			c-0.01-0.089-0.014-0.152-0.015-0.188c-0.009-0.036-0.034-0.083-0.078-0.144c-0.045-0.059-0.095-0.123-0.149-0.189
			c-0.056-0.067-0.112-0.13-0.171-0.19c-0.059-0.059-0.106-0.106-0.143-0.142c-0.082-0.105-0.181-0.204-0.297-0.294
			c-0.116-0.09-0.236-0.16-0.359-0.207c-0.021-0.014-0.064-0.029-0.13-0.045c-0.064-0.017-0.104-0.025-0.118-0.024
			c-0.008-0.007-0.029-0.026-0.066-0.058c-0.036-0.032-0.075-0.063-0.114-0.094c-0.04-0.032-0.079-0.061-0.115-0.089
			s-0.062-0.045-0.076-0.052c-0.015-0.006-0.04-0.019-0.076-0.036c-0.036-0.017-0.068-0.025-0.097-0.024
			c-0.008-0.007-0.036-0.021-0.087-0.042c-0.051-0.02-0.104-0.042-0.162-0.066c-0.059-0.023-0.112-0.046-0.163-0.066
			c-0.051-0.021-0.08-0.034-0.087-0.042c-0.043-0.013-0.075-0.026-0.098-0.041c-0.021-0.006-0.04-0.017-0.055-0.031
			c-0.015-0.006-0.036-0.024-0.065-0.052c-0.029-0.028-0.061-0.059-0.093-0.095c-0.033-0.035-0.064-0.066-0.094-0.095
			c-0.029-0.028-0.048-0.045-0.055-0.053c-0.008-0.006-0.027-0.019-0.061-0.036c-0.032-0.017-0.068-0.037-0.108-0.062
			s-0.08-0.048-0.12-0.073c-0.04-0.024-0.07-0.043-0.092-0.057c-0.218-0.109-0.427-0.238-0.627-0.384
			c-0.2-0.146-0.397-0.293-0.595-0.444c-0.196-0.149-0.396-0.296-0.595-0.438c-0.201-0.142-0.406-0.272-0.616-0.39
			c-0.029-0.035-0.077-0.102-0.144-0.201s-0.136-0.205-0.206-0.318c-0.07-0.113-0.139-0.217-0.205-0.312s-0.11-0.16-0.133-0.196
			c-0.016-0.014-0.033-0.042-0.056-0.085s-0.047-0.086-0.073-0.133c-0.026-0.046-0.049-0.09-0.067-0.133s-0.032-0.075-0.039-0.096
			l-0.013-0.559c-0.006-0.271-0.003-0.543,0.01-0.816c0.012-0.272,0.048-0.534,0.106-0.787c0.053-0.202,0.15-0.42,0.292-0.657
			c0.141-0.235,0.307-0.464,0.495-0.687s0.385-0.42,0.589-0.593c0.204-0.172,0.398-0.297,0.583-0.373
			c0.007,0,0.032-0.002,0.075-0.007s0.092-0.009,0.145-0.014c0.054-0.004,0.104-0.011,0.15-0.019
			c0.046-0.008,0.076-0.016,0.091-0.024c0.021,0,0.063-0.008,0.128-0.024c0.064-0.016,0.132-0.035,0.203-0.058
			c0.07-0.023,0.139-0.042,0.203-0.058c0.063-0.016,0.106-0.024,0.128-0.024c0.007,0,0.041-0.001,0.103-0.002
			c0.061-0.001,0.132-0.004,0.215-0.01c0.082-0.005,0.166-0.009,0.252-0.011s0.15-0.003,0.193-0.004
			c0.028,0,0.082-0.001,0.161-0.003c0.079-0.001,0.161-0.001,0.247,0c0.086,0.002,0.167,0.002,0.241,0
			c0.075-0.001,0.127-0.002,0.156-0.003c0.064,0.027,0.133,0.045,0.205,0.055c0.071,0.009,0.142,0.018,0.21,0.027
			s0.137,0.021,0.205,0.033c0.068,0.013,0.136,0.037,0.2,0.071c0.015,0.021,0.04,0.052,0.077,0.09
			c0.037,0.039,0.062,0.065,0.077,0.079c0.147,0.176,0.308,0.32,0.482,0.43c0.174,0.111,0.383,0.164,0.626,0.158
			c0.172-0.003,0.301-0.029,0.386-0.078c0.085-0.048,0.154-0.104,0.211-0.166c0.056-0.062,0.112-0.117,0.168-0.165
			c0.057-0.047,0.146-0.073,0.268-0.076c0.064-0.001,0.111,0.003,0.14,0.013c0.029,0.01,0.069,0.054,0.121,0.132
			c0.015,0.021,0.037,0.06,0.067,0.117c0.029,0.057,0.062,0.117,0.095,0.181c0.034,0.063,0.063,0.122,0.09,0.175
			s0.047,0.09,0.062,0.111l0.002,0.054l0.002,0.097c-0.008,0.008-0.016,0.029-0.025,0.065c-0.011,0.036-0.021,0.076-0.03,0.119
			c-0.01,0.043-0.018,0.083-0.024,0.119c-0.006,0.036-0.009,0.058-0.009,0.064l0.019,0.892c-0.09,0.138-0.146,0.265-0.169,0.38
			c-0.022,0.115-0.061,0.245-0.115,0.389c0.001,0.015-0.017,0.063-0.05,0.146c-0.035,0.083-0.059,0.129-0.072,0.136
			c-0.034,0.094-0.063,0.175-0.087,0.243c-0.023,0.069-0.055,0.126-0.093,0.174c-0.038,0.048-0.092,0.083-0.159,0.105
			s-0.162,0.036-0.283,0.039c-0.165,0.003-0.302-0.026-0.41-0.088c-0.109-0.062-0.197-0.143-0.263-0.242
			c-0.067-0.098-0.122-0.212-0.164-0.34s-0.082-0.257-0.121-0.39c-0.039-0.131-0.08-0.259-0.126-0.384
			c-0.046-0.124-0.105-0.232-0.18-0.324c-0.015-0.014-0.046-0.049-0.093-0.105c-0.049-0.056-0.102-0.116-0.16-0.179
			s-0.115-0.125-0.171-0.185c-0.055-0.059-0.097-0.103-0.126-0.131c-0.037-0.042-0.096-0.098-0.176-0.168
			c-0.08-0.069-0.164-0.141-0.252-0.215c-0.087-0.073-0.175-0.136-0.262-0.188s-0.159-0.077-0.217-0.076l-0.966,0.021
			c-0.052-0.035-0.097-0.055-0.136-0.062c-0.04-0.006-0.081-0.009-0.124-0.008l-0.118,0.003c-0.219,0.148-0.427,0.314-0.623,0.497
			s-0.383,0.373-0.557,0.57l0.003,0.15c0.003,0.129-0.008,0.236-0.03,0.323c-0.024,0.086-0.034,0.194-0.031,0.323l0.003,0.118
			c0,0.015,0.014,0.061,0.04,0.139c0.027,0.078,0.041,0.125,0.041,0.139c0.01,0.122,0.016,0.229,0.018,0.322
			c0.002,0.093,0.01,0.182,0.022,0.268c0.012,0.085,0.033,0.171,0.064,0.256c0.03,0.085,0.079,0.178,0.146,0.276
			c0.021,0.014,0.044,0.031,0.065,0.052l0.099,0.095c0.021,0.021,0.072,0.067,0.153,0.136c0.08,0.07,0.166,0.146,0.257,0.226
			c0.092,0.081,0.179,0.156,0.264,0.226c0.083,0.07,0.137,0.115,0.158,0.136c0.007,0.007,0.025,0.025,0.055,0.052
			c0.029,0.028,0.061,0.06,0.094,0.095c0.033,0.036,0.066,0.067,0.099,0.095c0.033,0.028,0.053,0.046,0.061,0.052
			c0.014,0.007,0.052,0.024,0.114,0.051c0.061,0.028,0.131,0.061,0.211,0.098c0.08,0.038,0.159,0.077,0.239,0.118
			c0.079,0.041,0.142,0.072,0.185,0.093c0.188,0.075,0.381,0.164,0.58,0.267s0.406,0.152,0.621,0.148
			c0.349,0.222,0.72,0.454,1.111,0.696c0.392,0.243,0.752,0.497,1.08,0.761c0.028,0.014,0.061,0.038,0.093,0.073
			c0.033,0.036,0.057,0.06,0.071,0.074c0.008,0.015,0.021,0.041,0.04,0.08c0.019,0.04,0.041,0.084,0.067,0.133
			c0.025,0.049,0.048,0.096,0.067,0.138c0.019,0.042,0.031,0.067,0.039,0.074c0.126,0.184,0.255,0.351,0.387,0.502
			c0.133,0.152,0.233,0.33,0.302,0.537c0.008,0.014,0.018,0.046,0.029,0.096c0.012,0.05,0.021,0.106,0.03,0.166
			c0.008,0.061,0.017,0.118,0.024,0.171c0.009,0.053,0.017,0.084,0.023,0.09c0.001,0.015,0.014,0.05,0.04,0.107
			c0.026,0.057,0.04,0.096,0.04,0.117l0.004,0.15c0.002,0.122-0.019,0.221-0.063,0.297c-0.046,0.076-0.076,0.183-0.095,0.319
			c0,0.029,0.006,0.102,0.016,0.22c0.009,0.118,0.016,0.235,0.018,0.349c0.003,0.136-0.002,0.219-0.016,0.248
			c0,0.007-0.009,0.029-0.025,0.065c-0.018,0.037-0.038,0.075-0.062,0.114c-0.024,0.04-0.047,0.078-0.067,0.113
			c-0.021,0.037-0.034,0.062-0.041,0.076c-0.015,0.021-0.045,0.086-0.093,0.19s-0.102,0.218-0.159,0.337
			c-0.059,0.119-0.111,0.231-0.159,0.336c-0.048,0.105-0.082,0.168-0.104,0.19c0,0.015-0.022,0.048-0.067,0.099
			c-0.046,0.051-0.1,0.109-0.163,0.176c-0.063,0.065-0.125,0.13-0.184,0.191c-0.061,0.062-0.107,0.111-0.143,0.148
			c-0.225,0.213-0.457,0.398-0.697,0.557c-0.239,0.16-0.502,0.282-0.786,0.367c-0.036,0.008-0.118,0.027-0.246,0.059
			c-0.129,0.031-0.268,0.064-0.417,0.101c-0.15,0.035-0.294,0.069-0.434,0.101c-0.139,0.031-0.244,0.052-0.315,0.061l-0.075,0.002
			c-0.387,0.008-0.786,0.006-1.198-0.007s-0.812-0.065-1.201-0.157c-0.072-0.02-0.137-0.049-0.195-0.086
			c-0.059-0.039-0.118-0.078-0.18-0.12s-0.122-0.083-0.18-0.125c-0.059-0.042-0.124-0.076-0.196-0.104
			c-0.051-0.021-0.134-0.049-0.249-0.086c-0.115-0.036-0.232-0.075-0.352-0.116c-0.119-0.039-0.229-0.078-0.33-0.115
			c-0.102-0.037-0.166-0.07-0.195-0.098c-0.022-0.029-0.062-0.074-0.121-0.138c-0.06-0.063-0.121-0.13-0.188-0.2
			c-0.065-0.07-0.126-0.137-0.182-0.2C155.18,57.523,155.142,57.481,155.12,57.46z"/>
		<path d="M169.209,53.233l-0.003-0.161c-0.003-0.1-0.002-0.224,0.002-0.371s0.006-0.294,0.007-0.441
			c0.001-0.146,0.003-0.275,0.008-0.387c0.005-0.11,0.007-0.184,0.006-0.22l-0.005-0.258c-0.002-0.093-0.014-0.179-0.033-0.257
			c-0.02-0.078-0.03-0.167-0.032-0.268c-0.002-0.107,0.004-0.213,0.02-0.317c0.016-0.104,0.022-0.213,0.021-0.328l-0.002-0.054
			c0-0.021-0.011-0.075-0.03-0.161s-0.029-0.139-0.03-0.161c-0.009-0.079-0.016-0.144-0.021-0.198s-0.009-0.107-0.014-0.161
			c-0.005-0.053-0.008-0.094-0.008-0.123c-0.005-0.193,0.006-0.351,0.032-0.474s0.037-0.273,0.033-0.452
			c-0.002-0.114-0.014-0.231-0.034-0.349s-0.032-0.245-0.035-0.381c-0.004-0.164,0.002-0.323,0.017-0.478
			c0.015-0.154,0.02-0.335,0.015-0.543c-0.005-0.229-0.011-0.433-0.019-0.612c-0.008-0.179-0.028-0.39-0.062-0.632
			c-0.088-0.105-0.207-0.187-0.354-0.245c-0.148-0.058-0.291-0.11-0.428-0.158c-0.137-0.047-0.257-0.098-0.357-0.153
			c-0.103-0.055-0.153-0.132-0.156-0.233l-0.001-0.075c-0.001-0.043,0.01-0.111,0.033-0.205c0.022-0.093,0.034-0.147,0.034-0.162
			c0.006-0.036,0.039-0.066,0.1-0.093c0.061-0.026,0.098-0.046,0.111-0.062c0.271-0.084,0.541-0.139,0.813-0.163
			c0.271-0.023,0.547-0.039,0.826-0.045l0.826-0.018c0.114-0.003,0.228-0.018,0.338-0.045s0.223-0.042,0.338-0.045
			c0.043-0.001,0.123-0.001,0.241,0c0.119,0.001,0.246,0,0.382-0.003s0.265-0.004,0.387-0.003s0.211,0.001,0.269,0
			c0.122,0.019,0.259,0.058,0.41,0.115c0.152,0.058,0.282,0.118,0.392,0.18c0.036,0.035,0.059,0.072,0.066,0.111
			c0.008,0.04,0.013,0.077,0.014,0.112l0.002,0.097c0.003,0.129-0.018,0.212-0.06,0.249c-0.042,0.037-0.116,0.1-0.222,0.188
			c-0.05,0.016-0.121,0.048-0.213,0.096c-0.092,0.049-0.146,0.073-0.159,0.073c-0.015,0.015-0.059,0.032-0.134,0.051
			c-0.074,0.02-0.13,0.037-0.165,0.052c-0.014,0-0.042,0.005-0.085,0.013c-0.043,0.008-0.09,0.018-0.14,0.03
			s-0.096,0.026-0.139,0.041c-0.043,0.016-0.067,0.027-0.074,0.034c-0.085,0.038-0.163,0.097-0.232,0.177
			c-0.07,0.081-0.133,0.173-0.188,0.278c-0.056,0.105-0.098,0.213-0.128,0.325c-0.029,0.112-0.043,0.21-0.042,0.296
			c0.003,0.129,0.013,0.246,0.029,0.349c0.017,0.104,0.041,0.227,0.072,0.369l0.071,3.275c-0.041,0.102-0.064,0.199-0.069,0.292
			c-0.005,0.094-0.006,0.201-0.004,0.323l0.007,0.301c0.047,0.515,0.108,1.043,0.185,1.586c0.076,0.543,0.217,1.056,0.42,1.538
			c0.001,0.015,0.026,0.052,0.078,0.111c0.051,0.06,0.077,0.097,0.077,0.111c0.007,0,0.019,0.018,0.034,0.053
			c0.015,0.036,0.029,0.075,0.045,0.117s0.03,0.084,0.046,0.123c0.015,0.04,0.026,0.062,0.034,0.069
			c0.045,0.121,0.108,0.232,0.189,0.334c0.08,0.102,0.144,0.214,0.189,0.334c0,0.007,0.004,0.025,0.012,0.053
			c0.008,0.029,0.016,0.059,0.023,0.091c0.008,0.032,0.016,0.061,0.023,0.085c0.008,0.025,0.016,0.042,0.022,0.048
			c0.038,0.085,0.08,0.152,0.128,0.201s0.099,0.09,0.153,0.12c0.055,0.031,0.114,0.061,0.179,0.087
			c0.065,0.027,0.138,0.066,0.218,0.114l0.077,0.073c0.035,0.007,0.079,0.02,0.13,0.041c0.05,0.02,0.09,0.029,0.118,0.029
			c0.028-0.001,0.104,0.005,0.227,0.017s0.253,0.024,0.393,0.04c0.141,0.015,0.273,0.027,0.398,0.039s0.203,0.018,0.231,0.017
			c0.007,0,0.045,0.012,0.113,0.035c0.068,0.024,0.11,0.036,0.125,0.035c0.036,0.014,0.086,0.028,0.151,0.045
			c0.064,0.017,0.129,0.032,0.194,0.044c0.064,0.014,0.122,0.024,0.173,0.034c0.05,0.01,0.078,0.015,0.086,0.015
			c0.05-0.008,0.1-0.02,0.149-0.035c0.036-0.008,0.075-0.017,0.118-0.025c0.043-0.007,0.074-0.016,0.096-0.023
			c0.199-0.047,0.383-0.113,0.549-0.199s0.324-0.183,0.473-0.29c0.147-0.106,0.294-0.223,0.438-0.348
			c0.144-0.125,0.293-0.253,0.448-0.385c0.098-0.088,0.216-0.173,0.354-0.255c0.138-0.082,0.237-0.184,0.3-0.308
			c0.014,0,0.029-0.025,0.046-0.076c0.017-0.05,0.031-0.094,0.046-0.13c0.025-0.108,0.061-0.234,0.104-0.378
			c0.043-0.144,0.07-0.274,0.083-0.389c0.006-0.015,0.015-0.047,0.024-0.097s0.018-0.104,0.023-0.162
			c0.006-0.057,0.01-0.11,0.013-0.161c0.002-0.05,0.004-0.083,0.003-0.097c0.007-0.007,0.022-0.033,0.047-0.076
			s0.05-0.088,0.078-0.136c0.027-0.047,0.052-0.093,0.072-0.136s0.03-0.072,0.03-0.086c0.006-0.021,0.013-0.068,0.019-0.14
			c0.005-0.071,0.011-0.151,0.016-0.237c0.006-0.086,0.009-0.172,0.011-0.258c0.002-0.086,0.002-0.154,0.001-0.204
			c0-0.007,0.001-0.038,0.004-0.091c0.002-0.054,0.004-0.116,0.007-0.188c0.001-0.071,0.003-0.141,0.006-0.209
			c0.002-0.068,0.003-0.119,0.002-0.155c-0.005-0.229-0.026-0.462-0.063-0.697c-0.037-0.236-0.059-0.468-0.063-0.697l-0.006-0.258
			c-0.001-0.057-0.001-0.113,0.002-0.167c0.002-0.054,0.021-0.099,0.057-0.136c0.021-0.308,0.036-0.638,0.043-0.989
			c0.007-0.351,0.007-0.691-0.001-1.021c-0.001-0.036-0.002-0.082-0.003-0.14c-0.001-0.057-0.006-0.096-0.013-0.117
			c-0.001-0.007-0.009-0.036-0.023-0.085c-0.016-0.05-0.033-0.103-0.052-0.16c-0.02-0.057-0.037-0.11-0.053-0.16
			c-0.016-0.049-0.022-0.082-0.023-0.096c-0.008-0.036-0.017-0.1-0.025-0.193c-0.009-0.093-0.015-0.189-0.017-0.29
			c-0.003-0.1-0.001-0.199,0.004-0.295s0.011-0.163,0.018-0.199c-0.038-0.078-0.087-0.181-0.146-0.309
			c-0.061-0.127-0.138-0.222-0.232-0.285c-0.036-0.021-0.08-0.044-0.13-0.072c-0.051-0.027-0.104-0.057-0.157-0.088
			c-0.055-0.031-0.105-0.057-0.152-0.078c-0.048-0.021-0.081-0.03-0.103-0.03c-0.015,0-0.047-0.004-0.098-0.014
			c-0.05-0.01-0.106-0.017-0.167-0.023s-0.117-0.014-0.167-0.023c-0.051-0.01-0.083-0.014-0.097-0.014
			c-0.008,0-0.027-0.008-0.06-0.025c-0.033-0.017-0.057-0.033-0.071-0.047c-0.044-0.035-0.113-0.087-0.207-0.157
			c-0.095-0.069-0.183-0.114-0.261-0.134c-0.044-0.013-0.097-0.022-0.157-0.029c-0.061-0.005-0.118-0.017-0.173-0.034
			c-0.054-0.017-0.102-0.044-0.141-0.083c-0.041-0.038-0.062-0.097-0.063-0.176c-0.001-0.036,0.016-0.084,0.051-0.146
			c0.034-0.061,0.079-0.121,0.136-0.18c0.056-0.058,0.119-0.11,0.19-0.154c0.07-0.045,0.142-0.068,0.213-0.069
			c0.229-0.005,0.406-0.012,0.532-0.022c0.124-0.01,0.244-0.016,0.359-0.019l1.353-0.029c0.007,0,0.036-0.004,0.086-0.013
			c0.05-0.008,0.105-0.017,0.166-0.025c0.061-0.008,0.114-0.019,0.16-0.03c0.047-0.012,0.076-0.024,0.091-0.04l0.15-0.003
			c0.093-0.002,0.183,0.012,0.27,0.042s0.177,0.044,0.27,0.042c0.114-0.002,0.223-0.021,0.326-0.056
			c0.103-0.034,0.216-0.053,0.338-0.056c0.293-0.006,0.573,0.047,0.842,0.159c0.267,0.113,0.492,0.278,0.676,0.496
			c0.001,0.015,0.01,0.052,0.029,0.112s0.036,0.098,0.051,0.112l0.002,0.054v0.021c-0.015,0.015-0.03,0.042-0.047,0.082
			s-0.025,0.07-0.024,0.092c-0.028,0.015-0.078,0.041-0.148,0.079c-0.071,0.038-0.146,0.075-0.224,0.112s-0.154,0.075-0.229,0.112
			s-0.126,0.063-0.154,0.079c-0.092,0.031-0.186,0.049-0.278,0.054c-0.093,0.006-0.184,0.017-0.272,0.033
			c-0.09,0.017-0.176,0.047-0.257,0.092c-0.081,0.044-0.157,0.118-0.226,0.219c-0.007,0.036-0.017,0.101-0.028,0.194
			c-0.013,0.094-0.024,0.198-0.036,0.312c-0.013,0.115-0.024,0.223-0.036,0.323c-0.013,0.101-0.018,0.172-0.017,0.215l0.016,0.741
			c0.001,0.021-0.002,0.064-0.008,0.129c-0.006,0.065-0.014,0.133-0.022,0.205s-0.017,0.14-0.022,0.205
			c-0.006,0.064-0.009,0.107-0.008,0.129c0,0.015,0.014,0.054,0.04,0.118s0.04,0.106,0.04,0.128l0.002,0.086l0.003,0.118
			c0,0.021-0.003,0.064-0.008,0.129c-0.006,0.065-0.014,0.133-0.022,0.205c-0.01,0.072-0.018,0.14-0.022,0.205
			c-0.006,0.064-0.009,0.107-0.008,0.129c-0.013,0.115-0.015,0.312-0.009,0.591c0.006,0.279,0.012,0.573,0.019,0.881
			c0.004,0.15,0.007,0.301,0.01,0.451c0.004,0.15,0.007,0.29,0.009,0.419c0.003,0.129,0.007,0.242,0.013,0.338
			c0.006,0.097,0.013,0.17,0.021,0.22c-0.021,0.065-0.045,0.159-0.075,0.281c-0.029,0.123-0.05,0.209-0.063,0.259l-0.106,2.033
			c-0.042,0.058-0.076,0.124-0.104,0.195c-0.027,0.073-0.05,0.15-0.069,0.233c-0.021,0.083-0.038,0.162-0.055,0.237
			c-0.017,0.076-0.034,0.146-0.055,0.211c0.001,0.015-0.008,0.042-0.024,0.081c-0.018,0.04-0.033,0.071-0.047,0.092
			c-0.124,0.232-0.246,0.475-0.365,0.728c-0.12,0.254-0.264,0.485-0.432,0.697c-0.007,0.007-0.022,0.025-0.047,0.055
			s-0.051,0.06-0.078,0.093c-0.028,0.032-0.057,0.065-0.084,0.099c-0.028,0.033-0.05,0.057-0.063,0.07
			c-0.015,0.008-0.035,0.023-0.063,0.045s-0.058,0.045-0.09,0.066c-0.031,0.022-0.062,0.045-0.09,0.066s-0.046,0.033-0.053,0.033
			c-0.015,0.016-0.039,0.041-0.074,0.077s-0.072,0.077-0.114,0.12c-0.043,0.045-0.081,0.085-0.116,0.121
			c-0.035,0.037-0.057,0.059-0.062,0.066c-0.015,0.008-0.045,0.016-0.091,0.023c-0.047,0.008-0.096,0.018-0.145,0.029
			c-0.051,0.012-0.099,0.022-0.145,0.03c-0.047,0.009-0.073,0.016-0.08,0.022c-0.093,0.018-0.179,0.06-0.256,0.129
			c-0.077,0.07-0.162,0.124-0.254,0.162c-0.015,0-0.047,0.008-0.097,0.023s-0.106,0.033-0.171,0.052
			c-0.063,0.02-0.128,0.039-0.191,0.058c-0.064,0.02-0.111,0.033-0.14,0.041c-0.078,0.017-0.178,0.035-0.299,0.055
			c-0.122,0.021-0.225,0.05-0.31,0.088c-0.071,0.037-0.126,0.072-0.164,0.105c-0.039,0.033-0.078,0.061-0.117,0.083
			s-0.079,0.039-0.122,0.051s-0.104,0.019-0.183,0.021l-0.279,0.006c-0.021,0-0.061-0.003-0.118-0.008
			c-0.058-0.007-0.12-0.014-0.188-0.023s-0.132-0.018-0.188-0.022c-0.058-0.007-0.097-0.009-0.118-0.009l-0.806,0.018
			c-0.007,0-0.026-0.003-0.06-0.01c-0.032-0.006-0.064-0.014-0.097-0.024c-0.032-0.01-0.065-0.019-0.098-0.024
			c-0.032-0.007-0.053-0.01-0.06-0.01l-0.183,0.004l-0.483,0.011c-0.015-0.015-0.053-0.04-0.114-0.078s-0.1-0.067-0.114-0.089
			c-0.225-0.104-0.431-0.195-0.618-0.277c-0.188-0.082-0.369-0.169-0.543-0.262s-0.351-0.197-0.528-0.316
			c-0.179-0.117-0.37-0.26-0.573-0.428c-0.008-0.007-0.027-0.02-0.061-0.037c-0.032-0.016-0.065-0.037-0.098-0.062
			c-0.033-0.023-0.065-0.045-0.098-0.062s-0.053-0.029-0.06-0.036c-0.073-0.063-0.132-0.137-0.177-0.223
			c-0.045-0.084-0.087-0.175-0.124-0.271c-0.039-0.096-0.074-0.191-0.108-0.287s-0.074-0.187-0.119-0.271
			c-0.015-0.014-0.038-0.045-0.072-0.095c-0.033-0.049-0.066-0.104-0.1-0.165c-0.034-0.06-0.063-0.115-0.09-0.165
			c-0.026-0.049-0.039-0.078-0.039-0.085c-0.067-0.099-0.116-0.209-0.147-0.33s-0.054-0.246-0.067-0.375
			c-0.013-0.128-0.023-0.253-0.029-0.375c-0.006-0.122-0.018-0.236-0.034-0.343c0-0.014-0.009-0.062-0.024-0.144
			c-0.017-0.082-0.032-0.169-0.049-0.262c-0.017-0.092-0.032-0.178-0.049-0.257C169.218,53.294,169.21,53.248,169.209,53.233z"/>
		<path d="M186.223,58.442c-0.087-0.013-0.159-0.047-0.218-0.103c-0.059-0.057-0.089-0.123-0.09-0.202
			c-0.002-0.079,0.003-0.174,0.015-0.285s0.046-0.192,0.103-0.243c0.021-0.001,0.059-0.008,0.112-0.02s0.098-0.024,0.134-0.04
			c0.028-0.001,0.076-0.005,0.145-0.014s0.143-0.02,0.226-0.032c0.081-0.012,0.156-0.022,0.225-0.031
			c0.067-0.008,0.116-0.014,0.145-0.014l0.741-0.017c0.043-0.001,0.104-0.011,0.182-0.03s0.155-0.045,0.229-0.075
			s0.142-0.062,0.202-0.096c0.06-0.034,0.101-0.067,0.121-0.104c0.007-0.021,0.015-0.062,0.024-0.125
			c0.01-0.061,0.019-0.123,0.028-0.188c0.01-0.065,0.017-0.128,0.022-0.189c0.006-0.061,0.009-0.102,0.009-0.123
			c-0.001-0.008-0.018-0.052-0.052-0.134c-0.034-0.081-0.051-0.126-0.051-0.133c-0.001-0.007,0.004-0.034,0.014-0.081
			s0.02-0.098,0.029-0.151s0.02-0.104,0.029-0.151c0.01-0.046,0.014-0.077,0.014-0.092l-0.008-0.365
			c-0.007-0.322-0.042-0.633-0.106-0.933c-0.063-0.299-0.099-0.606-0.105-0.922l-0.002-0.075c0-0.007,0.003-0.03,0.01-0.07
			c0.006-0.039,0.014-0.079,0.024-0.119c0.01-0.039,0.018-0.077,0.024-0.113c0.006-0.036,0.009-0.061,0.009-0.075l-0.01-0.43
			l-0.022-1.074c0.006-0.022,0.018-0.07,0.034-0.146c0.016-0.075,0.034-0.16,0.054-0.253c0.02-0.093,0.035-0.181,0.048-0.264
			c0.013-0.083,0.019-0.135,0.019-0.156c-0.001-0.014-0.015-0.06-0.041-0.139c-0.027-0.078-0.04-0.132-0.041-0.161l-0.002-0.075
			l-0.004-0.215c-0.016-0.014-0.045-0.049-0.089-0.105c-0.044-0.056-0.073-0.088-0.088-0.095l-0.001-0.064l-0.001-0.011
			c0.014-0.036,0.041-0.092,0.083-0.168c0.041-0.076,0.068-0.121,0.083-0.136c0.024-0.165,0.037-0.321,0.038-0.468
			c0-0.146-0.001-0.302-0.005-0.467c-0.004-0.186-0.003-0.371,0.004-0.554c0.007-0.183,0.048-0.364,0.123-0.545
			c-0.001-0.036-0.001-0.1,0.001-0.193c0.001-0.093,0.001-0.191-0.001-0.295c-0.002-0.104-0.003-0.202-0.001-0.295
			c0.001-0.093,0.002-0.158,0.001-0.194c-0.001-0.064-0.005-0.148-0.011-0.252s-0.01-0.208-0.012-0.312
			c-0.003-0.104-0.007-0.195-0.012-0.274c-0.006-0.079-0.008-0.122-0.008-0.129c-0.001-0.014-0.003-0.048-0.008-0.102
			c-0.005-0.053-0.012-0.11-0.02-0.171c-0.009-0.06-0.02-0.119-0.031-0.177c-0.012-0.057-0.021-0.099-0.029-0.127
			c-0.017-0.093-0.035-0.182-0.055-0.268s-0.08-0.149-0.181-0.189c-0.043,0-0.126-0.001-0.248-0.006
			c-0.122-0.004-0.249-0.008-0.382-0.013c-0.133-0.004-0.26-0.008-0.382-0.013c-0.122-0.004-0.203-0.01-0.247-0.016
			c-0.028,0-0.069-0.002-0.123-0.008s-0.11-0.012-0.167-0.018c-0.058-0.005-0.11-0.012-0.156-0.018
			c-0.047-0.006-0.074-0.013-0.081-0.02c-0.015-0.006-0.042-0.019-0.082-0.036c-0.039-0.017-0.083-0.037-0.13-0.062
			c-0.047-0.024-0.093-0.046-0.136-0.067s-0.076-0.038-0.098-0.052c-0.036-0.013-0.082-0.048-0.137-0.104
			c-0.055-0.056-0.094-0.095-0.115-0.116l-0.001-0.054c-0.003-0.129,0.028-0.251,0.094-0.368c0.065-0.116,0.155-0.2,0.269-0.253
			l1.053-0.022c0.866-0.019,1.723-0.009,2.568,0.03c0.846,0.04,1.702,0.049,2.568,0.03c0.043,0,0.118-0.004,0.226-0.01
			c0.107-0.005,0.221-0.01,0.339-0.013c0.118-0.002,0.23-0.006,0.338-0.012c0.106-0.006,0.182-0.01,0.225-0.011
			c0.036-0.015,0.078-0.032,0.128-0.051c0.05-0.019,0.089-0.029,0.118-0.029c0.007,0,0.032,0.014,0.076,0.041
			c0.021,0.014,0.039,0.024,0.054,0.031c0.022,0.007,0.063,0.017,0.125,0.029c0.061,0.014,0.125,0.026,0.194,0.039
			c0.067,0.013,0.131,0.026,0.188,0.039s0.094,0.023,0.108,0.03c0.007,0,0.024,0.007,0.054,0.02
			c0.029,0.014,0.062,0.031,0.098,0.052c0.036,0.021,0.069,0.038,0.099,0.052c0.028,0.014,0.047,0.021,0.054,0.02
			c0.231,0.096,0.448,0.189,0.651,0.282c0.201,0.092,0.416,0.211,0.641,0.357c0.065,0.042,0.113,0.08,0.143,0.115
			s0.056,0.072,0.077,0.111c0.022,0.039,0.045,0.082,0.067,0.128s0.057,0.104,0.101,0.175c0.112,0.205,0.207,0.371,0.285,0.499
			s0.142,0.255,0.19,0.383c0.05,0.128,0.087,0.272,0.112,0.433c0.024,0.161,0.04,0.37,0.045,0.627l0.006,0.236
			c0.006,0.272-0.001,0.566-0.019,0.881c-0.019,0.316-0.075,0.589-0.171,0.82c-0.015,0.008-0.04,0.041-0.078,0.099
			s-0.076,0.12-0.114,0.185s-0.074,0.127-0.109,0.185c-0.034,0.058-0.051,0.094-0.051,0.108c-0.035,0.059-0.064,0.113-0.088,0.163
			c-0.024,0.051-0.046,0.098-0.066,0.141c-0.021,0.043-0.047,0.087-0.078,0.131c-0.031,0.043-0.075,0.084-0.132,0.121
			c-0.113,0.067-0.23,0.128-0.351,0.185c-0.121,0.056-0.239,0.114-0.355,0.174c-0.117,0.06-0.23,0.127-0.34,0.201
			c-0.11,0.074-0.206,0.162-0.29,0.264c0.045,0.078,0.102,0.136,0.171,0.173c0.068,0.038,0.141,0.069,0.217,0.092
			c0.075,0.024,0.151,0.045,0.227,0.065c0.076,0.02,0.146,0.05,0.211,0.092c0.095,0.077,0.195,0.143,0.3,0.197
			c0.105,0.055,0.205,0.11,0.3,0.165c0.254,0.188,0.467,0.427,0.639,0.717c0.171,0.291,0.324,0.57,0.459,0.839
			c0.119,0.241,0.216,0.475,0.289,0.703c0.072,0.228,0.111,0.481,0.118,0.761l0.002,0.086c-0.065,0.302-0.151,0.625-0.259,0.967
			c-0.107,0.343-0.236,0.651-0.388,0.927c-0.049,0.08-0.094,0.146-0.136,0.197s-0.086,0.1-0.131,0.147
			c-0.046,0.048-0.095,0.098-0.147,0.148c-0.053,0.052-0.11,0.114-0.174,0.187c-0.014,0.015-0.042,0.049-0.083,0.104
			c-0.042,0.055-0.086,0.111-0.131,0.17c-0.046,0.059-0.089,0.113-0.131,0.164s-0.07,0.084-0.084,0.098
			c-0.015,0.016-0.059,0.039-0.133,0.072c-0.074,0.035-0.13,0.066-0.164,0.096c-0.043,0.016-0.114,0.04-0.213,0.074
			c-0.101,0.035-0.205,0.072-0.314,0.114c-0.111,0.042-0.214,0.082-0.31,0.12c-0.096,0.037-0.162,0.067-0.197,0.09
			c-0.071,0.002-0.198,0.006-0.381,0.014s-0.378,0.017-0.585,0.029c-0.207,0.011-0.402,0.02-0.585,0.027s-0.31,0.016-0.381,0.025
			c-0.021,0-0.073,0.005-0.155,0.014s-0.17,0.02-0.263,0.033c-0.093,0.012-0.181,0.023-0.263,0.032s-0.134,0.013-0.155,0.014
			l-0.075,0.002c-0.043,0.001-0.079-0.003-0.107-0.009c-0.029-0.006-0.065-0.027-0.109-0.062l-0.203,0.005
			c-0.236,0.005-0.465-0.005-0.684-0.028s-0.446-0.033-0.683-0.027c-0.129,0.002-0.253,0.012-0.37,0.029
			c-0.118,0.016-0.241,0.041-0.369,0.072c-0.015,0-0.043,0.013-0.085,0.039c-0.042,0.025-0.067,0.039-0.074,0.039l-0.021,0.001
			c-0.086,0.001-0.169-0.009-0.248-0.032c-0.08-0.023-0.158-0.035-0.237-0.033c-0.165,0.004-0.32,0.02-0.467,0.049
			c-0.146,0.027-0.302,0.043-0.466,0.047c-0.258,0.006-0.507,0.006-0.747,0S186.509,58.464,186.223,58.442z M190.387,48.284
			c0.005,0.244,0.042,0.46,0.11,0.648c0.068,0.188,0.145,0.396,0.229,0.624c0.053,0.106,0.098,0.204,0.136,0.292
			c0.037,0.089,0.084,0.167,0.139,0.233c0.056,0.067,0.128,0.117,0.219,0.151c0.09,0.034,0.21,0.049,0.36,0.046l0.054-0.001
			c0.014-0.007,0.044-0.024,0.091-0.05c0.045-0.026,0.093-0.052,0.143-0.078s0.096-0.052,0.139-0.079
			c0.042-0.025,0.066-0.039,0.074-0.039c0.021-0.007,0.064-0.016,0.128-0.024c0.064-0.008,0.135-0.017,0.209-0.026
			c0.075-0.008,0.146-0.017,0.209-0.026c0.064-0.008,0.104-0.013,0.118-0.013c0.079-0.009,0.175-0.043,0.288-0.103
			c0.113-0.06,0.227-0.128,0.34-0.206c0.111-0.078,0.218-0.159,0.316-0.244c0.099-0.084,0.175-0.16,0.231-0.225
			c0.063-0.059,0.112-0.113,0.146-0.165c0.035-0.05,0.066-0.104,0.094-0.158s0.055-0.109,0.082-0.163s0.069-0.118,0.125-0.191
			c0-0.014,0.033-0.052,0.1-0.115c0.066-0.062,0.101-0.101,0.1-0.115c0.028-0.029,0.06-0.082,0.094-0.158
			c0.034-0.076,0.058-0.128,0.071-0.157c0-0.014,0.005-0.061,0.014-0.14c0.009-0.079,0.021-0.17,0.037-0.275
			c0.015-0.104,0.029-0.206,0.041-0.307c0.013-0.101,0.025-0.175,0.038-0.226l-0.002-0.118l-0.002-0.107
			c-0.001-0.021-0.006-0.054-0.014-0.096c-0.008-0.043-0.017-0.089-0.024-0.139s-0.017-0.095-0.024-0.134
			c-0.008-0.039-0.016-0.062-0.022-0.069c-0.031-0.099-0.075-0.165-0.134-0.196c-0.058-0.031-0.116-0.089-0.176-0.173
			c-0.015-0.014-0.04-0.063-0.078-0.149c-0.038-0.085-0.063-0.134-0.078-0.149c-0.022-0.021-0.061-0.059-0.115-0.116
			c-0.056-0.056-0.115-0.116-0.182-0.179c-0.065-0.063-0.128-0.124-0.187-0.184c-0.059-0.059-0.099-0.1-0.121-0.121
			c-0.087-0.063-0.22-0.135-0.396-0.217c-0.178-0.082-0.365-0.159-0.563-0.229c-0.199-0.071-0.389-0.131-0.568-0.181
			c-0.181-0.05-0.313-0.074-0.399-0.072c-0.187,0.004-0.351,0.013-0.493,0.027c-0.144,0.014-0.314,0.038-0.515,0.07
			c-0.055,0.102-0.096,0.206-0.122,0.314c-0.026,0.108-0.043,0.22-0.052,0.333c-0.008,0.115-0.011,0.23-0.009,0.344
			c0.003,0.115,0.001,0.229-0.003,0.344c-0.011,0.166-0.053,0.312-0.125,0.438c-0.072,0.127-0.107,0.259-0.104,0.395
			c0.003,0.144,0.022,0.276,0.058,0.396c0.034,0.122,0.054,0.253,0.057,0.396c0.003,0.15-0.01,0.294-0.039,0.431
			C190.397,47.991,190.384,48.134,190.387,48.284z M190.674,57.089l0.696,0.404c0.001,0.028,0.037,0.041,0.108,0.04
			c0.15-0.003,0.307-0.018,0.472-0.042c0.164-0.025,0.311-0.051,0.438-0.074c0.071-0.009,0.161-0.023,0.269-0.043
			c0.106-0.021,0.21-0.039,0.311-0.056c0.1-0.017,0.187-0.032,0.262-0.049c0.075-0.016,0.116-0.024,0.123-0.024
			c0.021,0,0.057-0.021,0.106-0.061c0.049-0.041,0.102-0.084,0.158-0.127c0.056-0.045,0.108-0.087,0.158-0.127
			c0.049-0.041,0.084-0.062,0.105-0.062c0.162-0.117,0.329-0.256,0.502-0.414c0.172-0.156,0.327-0.327,0.468-0.509
			c0.139-0.182,0.253-0.377,0.342-0.587c0.088-0.209,0.13-0.429,0.125-0.658l-0.002-0.118c-0.001-0.007-0.015-0.051-0.041-0.133
			c-0.027-0.082-0.04-0.129-0.041-0.144l-0.016-0.752c-0.022-0.042-0.045-0.081-0.067-0.117c-0.016-0.035-0.032-0.067-0.051-0.095
			c-0.019-0.028-0.035-0.049-0.049-0.063c-0.001-0.021-0.011-0.039-0.028-0.053c-0.019-0.014-0.027-0.028-0.028-0.042
			c-0.015-0.014-0.037-0.049-0.066-0.106c-0.03-0.057-0.062-0.118-0.096-0.186c-0.033-0.067-0.067-0.129-0.101-0.186
			c-0.033-0.056-0.058-0.091-0.072-0.106c0-0.007-0.011-0.024-0.033-0.053c-0.021-0.028-0.05-0.062-0.083-0.101
			c-0.032-0.038-0.065-0.079-0.099-0.121c-0.033-0.042-0.061-0.074-0.083-0.095c-0.06-0.077-0.134-0.138-0.225-0.183
			c-0.091-0.044-0.169-0.105-0.234-0.183c-0.008-0.006-0.021-0.026-0.039-0.058s-0.041-0.063-0.066-0.095
			c-0.026-0.032-0.049-0.062-0.066-0.09c-0.019-0.028-0.032-0.042-0.039-0.042c-0.211-0.16-0.455-0.27-0.731-0.328
			c-0.277-0.058-0.539-0.121-0.783-0.187c-0.015,0-0.051-0.006-0.108-0.019s-0.12-0.026-0.188-0.039
			c-0.069-0.013-0.132-0.025-0.189-0.039c-0.058-0.013-0.09-0.02-0.097-0.02c-0.015,0-0.064,0-0.15-0.002
			c-0.086-0.001-0.154-0.002-0.204-0.001c-0.028,0-0.084,0.004-0.166,0.009c-0.083,0.005-0.139,0.008-0.167,0.009
			c-0.007,0.015-0.029,0.051-0.067,0.109c-0.038,0.059-0.064,0.091-0.078,0.099c-0.015,0.029-0.033,0.069-0.057,0.119
			c-0.024,0.051-0.046,0.101-0.066,0.151c-0.021,0.051-0.04,0.096-0.057,0.136c-0.017,0.04-0.025,0.063-0.025,0.07
			c-0.007,0.021-0.013,0.069-0.019,0.14c-0.006,0.072-0.011,0.149-0.017,0.231c-0.005,0.083-0.012,0.16-0.021,0.231
			c-0.009,0.072-0.018,0.119-0.023,0.14c-0.011,0.187-0.032,0.37-0.063,0.55c-0.032,0.18-0.046,0.37-0.042,0.57l0.006,0.236
			c0,0.015,0.004,0.048,0.013,0.102c0.008,0.053,0.019,0.114,0.03,0.182c0.013,0.068,0.022,0.13,0.031,0.188
			c0.008,0.058,0.013,0.093,0.013,0.107c0.003,0.093,0.01,0.251,0.021,0.472c0.012,0.222,0.021,0.455,0.025,0.698
			c0.006,0.25,0.007,0.482,0.005,0.697c-0.003,0.216-0.003,0.366-0.001,0.452L190.674,57.089z"/>
		<path d="M203.413,57.941l-2.029,0.045c-0.029,0-0.06-0.021-0.093-0.068c-0.033-0.045-0.065-0.099-0.095-0.159
			c-0.03-0.06-0.057-0.115-0.079-0.165c-0.022-0.049-0.034-0.078-0.034-0.085c-0.003-0.143,0.046-0.272,0.147-0.39
			c0.101-0.117,0.213-0.177,0.335-0.18c0.035,0,0.107-0.006,0.214-0.015c0.107-0.009,0.218-0.016,0.333-0.019
			c0.107-0.002,0.211,0,0.312,0.004c0.101,0.006,0.168,0.008,0.204,0.007c0.021-0.015,0.048-0.031,0.08-0.05
			c0.031-0.019,0.054-0.031,0.068-0.039c0.021-0.008,0.052-0.033,0.09-0.078c0.038-0.043,0.08-0.09,0.126-0.142
			c0.045-0.051,0.089-0.099,0.131-0.143c0.043-0.044,0.07-0.077,0.084-0.099c0-0.035,0.002-0.102,0.007-0.199
			c0.005-0.097,0.012-0.2,0.021-0.312c0.008-0.111,0.015-0.217,0.02-0.317c0.005-0.1,0.007-0.172,0.006-0.215
			c0.014-0.014,0.029-0.072,0.045-0.172c0.016-0.1,0.03-0.165,0.044-0.194l-0.011-0.483l-0.004-0.193
			c0-0.014,0.006-0.046,0.02-0.097c0.013-0.05,0.026-0.104,0.039-0.162c0.014-0.057,0.026-0.111,0.04-0.162
			c0.013-0.05,0.02-0.082,0.02-0.097c0.044-0.245,0.093-0.507,0.144-0.788c0.052-0.28,0.074-0.545,0.069-0.796
			c0-0.014-0.018-0.061-0.052-0.139c-0.033-0.078-0.051-0.131-0.052-0.16l-0.015-0.688c-0.007-0.322-0.003-0.645,0.012-0.967
			c0.014-0.323,0.054-0.639,0.119-0.948c0-0.007,0.006-0.032,0.02-0.076c0.014-0.043,0.026-0.09,0.04-0.141
			c0.013-0.05,0.026-0.098,0.04-0.146c0.013-0.046,0.02-0.077,0.02-0.091c-0.001-0.036,0.006-0.125,0.021-0.27
			c0.015-0.143,0.029-0.299,0.043-0.468c0.015-0.168,0.029-0.329,0.044-0.479c0.014-0.151,0.021-0.248,0.021-0.291
			c0-0.007,0.003-0.036,0.009-0.086c0.006-0.05,0.014-0.104,0.023-0.162s0.017-0.111,0.023-0.162
			c0.006-0.05,0.009-0.079,0.009-0.086c0-0.014-0.008-0.041-0.023-0.08c-0.016-0.039-0.034-0.078-0.056-0.117
			c-0.022-0.039-0.044-0.076-0.062-0.111c-0.02-0.035-0.028-0.057-0.028-0.064c-0.001-0.021,0.011-0.064,0.034-0.129
			c0.023-0.065,0.039-0.104,0.046-0.12c0.007-0.021,0.013-0.055,0.02-0.103c0.006-0.046,0.012-0.093,0.019-0.14
			c0.006-0.047,0.012-0.09,0.019-0.129c0.006-0.04,0.01-0.063,0.009-0.07c0-0.028-0.005-0.077-0.014-0.145s-0.018-0.141-0.026-0.22
			c-0.009-0.078-0.018-0.151-0.026-0.22c-0.009-0.067-0.017-0.119-0.024-0.155c-0.104-0.119-0.234-0.181-0.396-0.185
			c-0.161-0.003-0.311-0.011-0.446-0.023c-0.015,0-0.044-0.006-0.087-0.019s-0.089-0.03-0.136-0.051s-0.092-0.037-0.135-0.051
			c-0.044-0.013-0.072-0.02-0.087-0.02c-0.158-0.04-0.299-0.069-0.421-0.088c-0.122-0.019-0.232-0.044-0.329-0.079
			c-0.098-0.034-0.183-0.091-0.256-0.172c-0.074-0.081-0.141-0.207-0.202-0.377c0-0.021,0.021-0.049,0.063-0.082
			c0.042-0.033,0.069-0.057,0.084-0.072l0.225-0.005c0.021,0,0.064-0.008,0.129-0.024c0.064-0.015,0.135-0.035,0.214-0.058
			c0.078-0.023,0.149-0.042,0.214-0.059c0.063-0.015,0.106-0.023,0.128-0.024l0.569-0.013l0.677-0.014
			c0.015,0,0.041,0.003,0.08,0.009c0.04,0.006,0.079,0.014,0.119,0.024c0.039,0.01,0.096,0.021,0.167,0.034l1.579-0.034
			c0.245,0.096,0.447,0.226,0.604,0.39c0.157,0.165,0.311,0.35,0.458,0.554c0.008,0.015,0.024,0.036,0.05,0.063
			c0.025,0.028,0.053,0.058,0.083,0.089c0.028,0.031,0.053,0.063,0.071,0.095c0.019,0.032,0.028,0.055,0.028,0.069
			c0.015,0.007,0.029,0.05,0.046,0.128c0.016,0.079,0.035,0.132,0.058,0.16c0.061,0.149,0.141,0.289,0.24,0.419
			c0.1,0.131,0.165,0.281,0.197,0.453c0.001,0.015,0.005,0.055,0.014,0.123c0.008,0.068,0.02,0.139,0.031,0.214
			c0.013,0.075,0.023,0.146,0.031,0.214c0.009,0.068,0.014,0.112,0.014,0.134c0.038,0.1,0.093,0.212,0.164,0.34
			c0.07,0.127,0.121,0.234,0.151,0.319c0.001,0.015,0.014,0.064,0.041,0.149c0.026,0.085,0.041,0.136,0.041,0.15
			c0.007,0.014,0.025,0.039,0.056,0.074c0.028,0.036,0.062,0.073,0.099,0.111c0.036,0.039,0.069,0.076,0.099,0.111
			s0.048,0.057,0.055,0.063c0.008,0.015,0.018,0.047,0.029,0.096c0.012,0.05,0.021,0.104,0.03,0.161
			c0.008,0.058,0.015,0.112,0.02,0.166s0.008,0.088,0.008,0.102c0.076,0.242,0.177,0.449,0.298,0.622
			c0.122,0.173,0.236,0.38,0.342,0.622c0,0.015,0.004,0.047,0.013,0.096c0.008,0.05,0.017,0.104,0.025,0.161
			c0.008,0.058,0.015,0.113,0.02,0.167c0.004,0.054,0.007,0.087,0.008,0.102c0,0.015,0.013,0.063,0.04,0.145
			c0.027,0.082,0.041,0.13,0.041,0.144c0.03,0.085,0.078,0.147,0.144,0.185c0.065,0.038,0.134,0.076,0.207,0.113
			c0.072,0.038,0.136,0.082,0.19,0.13s0.083,0.12,0.085,0.213l0.005,0.183c0,0.015-0.012,0.062-0.035,0.141
			c-0.023,0.08-0.035,0.126-0.034,0.14c0,0.007,0.006,0.031,0.018,0.07s0.024,0.082,0.04,0.128c0.016,0.046,0.03,0.095,0.046,0.144
			c0.016,0.05,0.027,0.089,0.035,0.118c0.022,0.05,0.052,0.108,0.09,0.175c0.037,0.067,0.079,0.132,0.128,0.196
			c0.048,0.063,0.101,0.118,0.159,0.163c0.058,0.046,0.115,0.067,0.173,0.066c0.043-0.001,0.078-0.016,0.106-0.045
			c0.027-0.029,0.051-0.065,0.067-0.109s0.034-0.088,0.051-0.135s0.039-0.088,0.067-0.125c0.076-0.095,0.177-0.195,0.3-0.302
			c0.123-0.106,0.215-0.232,0.276-0.377c0.006-0.036,0.013-0.071,0.02-0.108c0.006-0.036,0.013-0.068,0.02-0.097
			c0.006-0.029,0.009-0.054,0.009-0.076c0.033-0.137,0.069-0.254,0.11-0.352s0.086-0.191,0.134-0.282s0.102-0.181,0.161-0.272
			c0.059-0.09,0.119-0.194,0.181-0.31c0.083-0.138,0.145-0.277,0.185-0.418s0.098-0.276,0.174-0.407
			c0.007-0.007,0.024-0.031,0.052-0.071c0.027-0.04,0.059-0.082,0.095-0.125c0.034-0.044,0.065-0.083,0.094-0.121
			c0.027-0.036,0.045-0.058,0.052-0.065c0.021-0.029,0.038-0.072,0.052-0.13c0.013-0.058,0.024-0.115,0.033-0.172
			c0.01-0.058,0.018-0.113,0.023-0.167c0.006-0.054,0.016-0.095,0.029-0.125c0.102-0.31,0.228-0.601,0.379-0.873
			s0.289-0.563,0.411-0.874c0.055-0.123,0.09-0.257,0.104-0.405c0.015-0.147,0.042-0.282,0.082-0.405
			c0.021-0.029,0.058-0.104,0.108-0.223c0.051-0.12,0.104-0.248,0.158-0.385c0.055-0.137,0.107-0.264,0.158-0.379
			c0.052-0.115,0.084-0.191,0.098-0.228c0.006-0.021,0.016-0.059,0.029-0.113c0.014-0.054,0.02-0.092,0.019-0.113l-0.001-0.032
			v-0.021c0-0.021-0.01-0.052-0.028-0.091c-0.019-0.039-0.028-0.065-0.028-0.08l-0.001-0.011l-0.001-0.064
			c0.047-0.101,0.099-0.202,0.154-0.304c0.055-0.101,0.117-0.194,0.188-0.278c0.069-0.083,0.153-0.155,0.253-0.215
			c0.099-0.059,0.217-0.101,0.353-0.125c0.028-0.001,0.116,0,0.263,0c0.146,0.001,0.288-0.001,0.425-0.004
			c0.143-0.003,0.229-0.008,0.258-0.016c0.014,0,0.044-0.006,0.091-0.018c0.046-0.012,0.096-0.027,0.148-0.046
			c0.054-0.019,0.102-0.036,0.145-0.051c0.042-0.015,0.067-0.023,0.074-0.023c0.228-0.062,0.445-0.109,0.652-0.143
			c0.207-0.033,0.439-0.052,0.697-0.058c0.043,0,0.101,0,0.173,0.002c0.071,0.002,0.141,0.002,0.209,0.001s0.129-0.001,0.183,0.001
			c0.054,0.003,0.084,0.004,0.091,0.003c0.079-0.001,0.167,0.015,0.265,0.048c0.098,0.034,0.19,0.082,0.277,0.145
			s0.16,0.135,0.22,0.215c0.059,0.082,0.09,0.168,0.092,0.261c0.001,0.058-0.021,0.119-0.066,0.184
			c-0.045,0.066-0.1,0.128-0.162,0.187c-0.063,0.059-0.127,0.109-0.19,0.149c-0.063,0.041-0.113,0.062-0.149,0.062
			c-0.122,0.002-0.236-0.007-0.345-0.03c-0.107-0.022-0.222-0.033-0.344-0.03c-0.122,0.003-0.243,0.015-0.364,0.035
			c-0.122,0.021-0.254,0.064-0.396,0.132c-0.085,0.045-0.151,0.111-0.199,0.198c-0.049,0.087-0.084,0.183-0.107,0.287
			c-0.022,0.104-0.034,0.214-0.035,0.329c-0.002,0.115-0.001,0.219,0.001,0.312l0.004,0.183c0.002,0.086,0.007,0.156,0.016,0.209
			c0.008,0.054,0.02,0.105,0.035,0.155s0.032,0.1,0.052,0.149c0.019,0.05,0.036,0.114,0.053,0.192
			c0.001,0.036,0.003,0.097,0.009,0.183s0.01,0.174,0.012,0.263c0.002,0.09,0.005,0.176,0.011,0.257
			c0.005,0.083,0.008,0.138,0.009,0.167c0.015,0.659,0.011,1.313-0.012,1.961c-0.021,0.649-0.019,1.303,0.011,1.96
			c0,0.015-0.012,0.051-0.035,0.108c-0.024,0.058-0.036,0.094-0.035,0.108l0.001,0.054l0.001,0.032
			c0.039,0.186,0.079,0.382,0.12,0.589c0.04,0.207,0.062,0.407,0.066,0.6c0.004,0.187-0.02,0.36-0.069,0.522
			s-0.073,0.336-0.069,0.522l0.003,0.129c0.001,0.058,0.006,0.109,0.014,0.156c0.008,0.047,0.03,0.098,0.068,0.154
			c0,0.021,0.001,0.063,0.002,0.124c0.002,0.061,0.005,0.125,0.01,0.193c0.005,0.068,0.009,0.133,0.01,0.193
			c0.001,0.061,0.002,0.102,0.003,0.124c0.001,0.043,0.002,0.101,0.004,0.172c0.001,0.072,0.001,0.142-0.001,0.209
			c-0.003,0.068-0.003,0.129-0.002,0.183s0.002,0.084,0.002,0.091c0,0.007-0.012,0.051-0.034,0.13
			c-0.024,0.08-0.035,0.133-0.034,0.162l0.003,0.172l0.003,0.107c0,0.021,0.021,0.072,0.062,0.149
			c0.04,0.078,0.068,0.128,0.083,0.148c0.008,0.015,0.028,0.041,0.062,0.079c0.033,0.039,0.066,0.08,0.1,0.121
			c0.032,0.043,0.063,0.08,0.093,0.111s0.048,0.051,0.056,0.059c0.014,0.006,0.031,0.031,0.05,0.074
			c0.019,0.042,0.028,0.07,0.028,0.085c0.015,0.015,0.029,0.03,0.044,0.048s0.033,0.025,0.055,0.025l0.29-0.007
			c0.007,0,0.034,0.007,0.081,0.021s0.096,0.026,0.146,0.039c0.051,0.014,0.098,0.027,0.141,0.04
			c0.044,0.014,0.072,0.021,0.087,0.02c0.007,0.007,0.032,0.015,0.075,0.021s0.088,0.014,0.135,0.023s0.092,0.018,0.135,0.023
			c0.043,0.007,0.071,0.014,0.087,0.02c0.021,0.008,0.054,0.02,0.097,0.036c0.044,0.017,0.091,0.035,0.142,0.056
			c0.05,0.021,0.096,0.041,0.136,0.062c0.039,0.021,0.062,0.034,0.07,0.042c0,0.014,0.005,0.043,0.013,0.085
			c0.008,0.043,0.012,0.068,0.013,0.075c0.002,0.101-0.043,0.189-0.135,0.266c-0.091,0.078-0.198,0.117-0.319,0.12l-3.565,0.077
			c-0.036,0.001-0.091,0.014-0.166,0.041c-0.074,0.027-0.119,0.041-0.133,0.041l-0.075,0.002l-0.075,0.001
			c-0.008,0.001-0.031,0.008-0.069,0.022c-0.04,0.016-0.08,0.031-0.123,0.047c-0.043,0.015-0.082,0.029-0.117,0.045
			c-0.036,0.016-0.058,0.023-0.064,0.023l-0.59,0.012l-0.172,0.004c-0.094,0.002-0.191-0.043-0.293-0.133
			c-0.103-0.091-0.154-0.187-0.157-0.287l-0.001-0.075c0.05-0.001,0.14-0.015,0.268-0.044c0.128-0.027,0.218-0.041,0.268-0.043
			c0.015,0,0.048-0.014,0.102-0.039c0.053-0.026,0.086-0.04,0.101-0.041c0.015,0,0.041-0.004,0.081-0.012
			c0.039-0.008,0.08-0.016,0.123-0.024c0.043-0.008,0.08-0.018,0.111-0.029c0.032-0.011,0.052-0.021,0.059-0.028
			c0.085-0.029,0.15-0.09,0.195-0.181c0.044-0.091,0.078-0.188,0.101-0.292c0.022-0.104,0.037-0.209,0.042-0.312
			s0.007-0.191,0.005-0.264c0.068-0.46,0.114-0.919,0.137-1.378c0.022-0.458,0.057-0.925,0.104-1.399
			c-0.002-0.071-0.003-0.202-0.004-0.392c0-0.189,0.001-0.39,0.004-0.602c0.002-0.211,0.003-0.41,0.003-0.596
			c-0.001-0.187-0.002-0.319-0.003-0.398c-0.003-0.136-0.009-0.313-0.018-0.531c-0.008-0.218-0.019-0.435-0.029-0.649
			c-0.013-0.214-0.021-0.404-0.029-0.569c-0.007-0.165-0.011-0.254-0.011-0.269c-0.001-0.05-0.005-0.145-0.012-0.285
			c-0.007-0.139-0.016-0.288-0.025-0.445c-0.011-0.157-0.02-0.307-0.026-0.451c-0.007-0.143-0.015-0.247-0.022-0.311
			c-0.001-0.021-0.009-0.064-0.024-0.128c-0.016-0.064-0.037-0.13-0.063-0.198c-0.026-0.067-0.057-0.127-0.09-0.181
			s-0.064-0.079-0.093-0.079c-0.064,0.001-0.116,0.019-0.155,0.052c-0.038,0.033-0.072,0.071-0.1,0.115
			c-0.027,0.044-0.054,0.091-0.077,0.142c-0.024,0.051-0.054,0.094-0.089,0.131c-0.006,0.015-0.025,0.04-0.057,0.077
			s-0.068,0.077-0.11,0.121s-0.083,0.082-0.121,0.115c-0.039,0.033-0.065,0.054-0.079,0.061c0,0.021-0.008,0.05-0.025,0.086
			c-0.017,0.037-0.025,0.065-0.024,0.086c-0.082,0.195-0.18,0.382-0.294,0.56c-0.115,0.178-0.213,0.368-0.295,0.57
			c-0.06,0.188-0.108,0.384-0.143,0.589c-0.035,0.205-0.079,0.405-0.132,0.6c-0.006,0.086-0.035,0.151-0.088,0.195
			c-0.053,0.043-0.089,0.105-0.108,0.185c-0.007,0.007-0.016,0.031-0.025,0.07s-0.019,0.081-0.024,0.124s-0.013,0.085-0.019,0.124
			c-0.007,0.04-0.01,0.063-0.009,0.07c-0.015,0.015-0.043,0.044-0.085,0.088s-0.088,0.09-0.137,0.137
			c-0.049,0.048-0.097,0.096-0.142,0.143c-0.046,0.048-0.072,0.079-0.078,0.093c-0.05,0.044-0.08,0.119-0.092,0.223
			c-0.013,0.104-0.028,0.178-0.049,0.221c-0.007,0.021-0.017,0.062-0.03,0.119c-0.013,0.058-0.02,0.094-0.019,0.108
			c-0.015,0.015-0.042,0.049-0.084,0.104s-0.07,0.089-0.084,0.104c-0.067,0.188-0.113,0.38-0.138,0.578s-0.066,0.39-0.127,0.578
			c-0.021,0.037-0.047,0.092-0.077,0.168c-0.03,0.076-0.062,0.156-0.092,0.239s-0.06,0.157-0.087,0.222
			c-0.027,0.065-0.044,0.105-0.051,0.119c0,0.015-0.017,0.058-0.051,0.13c-0.034,0.073-0.07,0.152-0.107,0.239
			c-0.038,0.086-0.076,0.168-0.113,0.244c-0.038,0.076-0.063,0.125-0.077,0.146c0,0.007-0.001,0.036-0.004,0.086
			c-0.003,0.051-0.007,0.104-0.013,0.162c-0.006,0.058-0.012,0.112-0.018,0.162c-0.007,0.05-0.009,0.08-0.009,0.086
			c0,0.036-0.011,0.092-0.034,0.167s-0.035,0.121-0.035,0.136c-0.021,0.036-0.05,0.1-0.087,0.189
			c-0.038,0.091-0.08,0.185-0.128,0.282c-0.049,0.098-0.092,0.19-0.129,0.276c-0.037,0.088-0.066,0.146-0.087,0.174
			c-0.079,0.045-0.156,0.097-0.233,0.155c-0.077,0.06-0.166,0.09-0.267,0.092c-0.093,0.002-0.188-0.04-0.282-0.128
			c-0.095-0.087-0.182-0.191-0.259-0.311c-0.078-0.121-0.146-0.244-0.202-0.373c-0.056-0.127-0.093-0.234-0.108-0.319
			c-0.039-0.128-0.072-0.245-0.1-0.353c-0.027-0.107-0.053-0.212-0.076-0.315c-0.023-0.103-0.053-0.208-0.088-0.315
			c-0.034-0.107-0.082-0.224-0.142-0.352c-0.008-0.014-0.032-0.054-0.072-0.122c-0.041-0.067-0.084-0.138-0.128-0.212
			c-0.045-0.074-0.086-0.143-0.123-0.207c-0.037-0.063-0.06-0.102-0.067-0.117c-0.134-0.226-0.234-0.455-0.304-0.687
			c-0.07-0.231-0.158-0.475-0.264-0.73c-0.137-0.355-0.295-0.707-0.474-1.054c-0.18-0.347-0.335-0.709-0.465-1.086
			c-0.007-0.006-0.015-0.032-0.022-0.075c-0.009-0.042-0.015-0.089-0.02-0.139c-0.005-0.05-0.009-0.097-0.014-0.14
			c-0.005-0.042-0.007-0.071-0.007-0.085c-0.016-0.014-0.044-0.051-0.089-0.111c-0.044-0.06-0.073-0.097-0.088-0.111
			c-0.001-0.014-0.012-0.048-0.035-0.101c-0.022-0.053-0.033-0.087-0.034-0.102c-0.008-0.014-0.019-0.041-0.034-0.08
			c-0.015-0.039-0.032-0.08-0.051-0.123s-0.038-0.08-0.056-0.112c-0.019-0.032-0.032-0.051-0.039-0.058
			c-0.001-0.021-0.003-0.059-0.008-0.113s-0.012-0.109-0.02-0.166c-0.009-0.057-0.018-0.111-0.025-0.161s-0.013-0.082-0.013-0.097
			c-0.015-0.021-0.032-0.05-0.051-0.09c-0.019-0.039-0.039-0.081-0.062-0.127c-0.022-0.046-0.045-0.088-0.067-0.127
			c-0.022-0.039-0.041-0.069-0.056-0.09l-0.229-0.221c-0.066-0.084-0.122-0.186-0.168-0.303s-0.097-0.232-0.152-0.346
			c-0.057-0.113-0.127-0.208-0.211-0.286s-0.197-0.114-0.341-0.111l-0.064,0.001c-0.033,0.129-0.054,0.248-0.062,0.356
			c-0.009,0.107-0.016,0.214-0.021,0.317c-0.005,0.104-0.008,0.211-0.009,0.323c-0.002,0.111-0.005,0.235-0.009,0.371
			c-0.013,0.065-0.024,0.113-0.034,0.146c-0.01,0.032-0.021,0.081-0.034,0.146l0.002,0.118c0.002,0.079,0.016,0.157,0.043,0.235
			c0.026,0.079,0.041,0.164,0.043,0.257l0.002,0.064c-0.032,0.173-0.064,0.345-0.097,0.518s-0.046,0.352-0.042,0.538
			c0.006,0.244,0.037,0.479,0.096,0.707s0.091,0.464,0.097,0.707c-0.014,0.058-0.025,0.103-0.035,0.135
			c-0.01,0.032-0.019,0.065-0.024,0.097c-0.007,0.032-0.01,0.053-0.01,0.06l0.024,1.117c0,0.015-0.007,0.047-0.02,0.097
			c-0.014,0.05-0.028,0.104-0.045,0.162s-0.034,0.113-0.05,0.167c-0.018,0.054-0.029,0.088-0.036,0.103l0.003,0.107
			c0.001,0.064,0.009,0.12,0.024,0.166s0.042,0.108,0.08,0.186l0.034,1.61c0.037,0.064,0.067,0.136,0.091,0.214
			c0.023,0.079,0.046,0.157,0.069,0.235s0.052,0.15,0.086,0.218c0.033,0.067,0.079,0.122,0.138,0.163
			c0.15,0.012,0.335,0.029,0.555,0.053c0.219,0.024,0.407,0.066,0.566,0.128c0.015,0.021,0.049,0.052,0.104,0.089
			c0.055,0.039,0.089,0.064,0.104,0.078c0.058,0.027,0.115,0.049,0.173,0.061c0.058,0.014,0.108,0.029,0.151,0.051
			c0.044,0.021,0.078,0.052,0.104,0.094c0.025,0.043,0.04,0.1,0.041,0.172c0.002,0.1-0.018,0.18-0.06,0.237
			c-0.041,0.059-0.094,0.103-0.158,0.132c-0.063,0.03-0.135,0.05-0.214,0.059c-0.078,0.009-0.153,0.015-0.225,0.016
			c-0.301,0.007-0.602,0-0.903-0.018c-0.301-0.02-0.603-0.025-0.903-0.018L204.23,58c-0.007,0-0.026,0.004-0.059,0.012
			s-0.063,0.018-0.096,0.029c-0.031,0.011-0.063,0.021-0.096,0.028s-0.052,0.013-0.059,0.013c-0.015,0-0.046-0.005-0.092-0.015
			c-0.047-0.01-0.098-0.023-0.151-0.04c-0.055-0.016-0.106-0.031-0.157-0.045C203.47,57.969,203.435,57.956,203.413,57.941z"/>
		<path d="M226.072,57.452c-0.38,0.009-0.753,0.032-1.121,0.073c-0.368,0.039-0.738,0.063-1.11,0.072l-0.075,0.001
			c-0.086-0.013-0.194-0.026-0.323-0.041c-0.13-0.015-0.254-0.044-0.373-0.089c-0.119-0.044-0.221-0.104-0.304-0.182
			c-0.085-0.076-0.128-0.184-0.131-0.319c-0.001-0.028,0.002-0.067,0.008-0.118c0.006-0.05,0.026-0.09,0.062-0.119
			c0.014-0.021,0.049-0.041,0.105-0.057s0.097-0.023,0.118-0.023c0.199-0.025,0.399-0.045,0.601-0.057
			c0.199-0.011,0.396-0.037,0.589-0.076c0.192-0.041,0.376-0.105,0.55-0.195c0.173-0.09,0.329-0.223,0.469-0.397
			c-0.014-0.315-0.01-0.625,0.012-0.93c0.022-0.305,0.03-0.607,0.023-0.908c-0.002-0.122-0.018-0.232-0.044-0.333
			c-0.028-0.1-0.042-0.203-0.045-0.311l-0.004-0.193c-0.001-0.021,0.002-0.057,0.008-0.107s0.015-0.106,0.023-0.167
			c0.01-0.061,0.018-0.117,0.023-0.167c0.006-0.05,0.009-0.082,0.009-0.097l-0.035-1.611c0-0.014,0.003-0.041,0.01-0.081
			c0.006-0.039,0.014-0.081,0.023-0.124s0.018-0.081,0.024-0.113s0.01-0.052,0.01-0.06c0-0.014,0-0.052,0.003-0.113
			c0.002-0.06,0.003-0.13,0.001-0.209c-0.002-0.079-0.002-0.157,0-0.236c0.002-0.079,0.003-0.14,0.002-0.183
			c-0.001-0.028-0.004-0.08-0.009-0.155c-0.006-0.075-0.009-0.152-0.011-0.231c-0.002-0.079-0.005-0.152-0.01-0.22
			c-0.006-0.068-0.008-0.113-0.009-0.134c0-0.028-0.011-0.082-0.03-0.16s-0.037-0.132-0.052-0.16l-0.002-0.086
			c-0.002-0.114,0.023-0.223,0.079-0.324c0.055-0.101,0.081-0.22,0.078-0.356l-0.003-0.129c-0.001-0.064-0.01-0.127-0.025-0.188
			c-0.016-0.06-0.042-0.119-0.079-0.176l-0.016-0.752c-0.006-0.258,0.005-0.508,0.031-0.752c0.027-0.244,0.038-0.488,0.033-0.731
			l-0.004-0.15c-0.007-0.007-0.017-0.026-0.027-0.059c-0.012-0.032-0.023-0.064-0.034-0.096c-0.012-0.032-0.025-0.076-0.041-0.134
			c-0.001-0.036,0.011-0.091,0.034-0.167s0.042-0.121,0.056-0.136l-0.001-0.075c-0.003-0.129-0.056-0.253-0.159-0.372
			c-0.103-0.12-0.208-0.196-0.316-0.23c-0.063-0.005-0.179-0.021-0.345-0.046c-0.165-0.025-0.338-0.052-0.518-0.08
			c-0.18-0.029-0.35-0.055-0.512-0.081c-0.162-0.025-0.275-0.044-0.34-0.057c-0.173-0.032-0.305-0.097-0.396-0.196
			c-0.093-0.098-0.14-0.24-0.145-0.427c-0.003-0.15,0.058-0.268,0.181-0.353c0.123-0.084,0.267-0.149,0.431-0.192
			c0.164-0.042,0.332-0.07,0.504-0.081s0.304-0.018,0.396-0.02l0.107-0.002c0.028,0,0.099,0.005,0.21,0.017
			c0.111,0.012,0.23,0.024,0.355,0.035c0.125,0.012,0.242,0.023,0.35,0.036c0.108,0.012,0.176,0.018,0.205,0.017
			c0.036,0.014,0.104,0.019,0.204,0.017c0.101-0.002,0.208-0.005,0.322-0.007c0.108-0.002,0.212-0.004,0.312-0.006
			c0.101-0.002,0.176-0.011,0.226-0.026c0.079,0.048,0.168,0.075,0.265,0.08c0.097,0.005,0.171,0.007,0.22,0.006
			c0.295-0.006,0.575-0.041,0.848-0.104c0.27-0.063,0.566-0.099,0.889-0.105l0.602-0.013c0.087,0.056,0.178,0.102,0.272,0.139
			c0.093,0.038,0.182,0.079,0.267,0.123c0.083,0.045,0.152,0.103,0.207,0.173c0.056,0.071,0.083,0.17,0.086,0.299
			c0.002,0.058-0.007,0.121-0.027,0.189c-0.02,0.069-0.05,0.135-0.087,0.201c-0.038,0.065-0.086,0.12-0.142,0.164
			c-0.058,0.044-0.117,0.067-0.182,0.068c-0.156,0.032-0.313,0.057-0.472,0.075c-0.155,0.018-0.321,0.029-0.493,0.032
			c-0.178,0.004-0.354,0.001-0.526-0.01c-0.171-0.01-0.348-0.028-0.528-0.053c-0.014,0-0.024,0.017-0.036,0.049
			c-0.009,0.033-0.014,0.06-0.014,0.081c0.001,0.015,0.005,0.042,0.012,0.081c0.009,0.039,0.016,0.079,0.021,0.118
			c0.002,0.04,0.014,0.095,0.028,0.166l0.004,0.172c0.002,0.079-0.009,0.15-0.032,0.215c-0.024,0.065-0.048,0.13-0.07,0.195
			c-0.023,0.065-0.048,0.128-0.072,0.189c-0.023,0.062-0.034,0.128-0.032,0.2l0.003,0.15c0.014,0.021,0.03,0.063,0.052,0.128
			c0.019,0.064,0.035,0.103,0.049,0.117l0.01,0.43l0.004,0.161c0.008,0.036,0.019,0.068,0.035,0.095
			c0.028,0.071,0.045,0.114,0.046,0.128c0.018,0.193,0.035,0.375,0.049,0.547c0.015,0.171,0.023,0.361,0.027,0.569
			c0.005,0.229-0.027,0.457-0.097,0.685c-0.071,0.227-0.103,0.462-0.098,0.706v0.021c0.007,0.015,0.021,0.041,0.039,0.08
			c0.019,0.039,0.039,0.083,0.062,0.133s0.041,0.098,0.058,0.144c0.015,0.047,0.023,0.077,0.023,0.091l0.009,0.387
			c0.006,0.272-0.018,0.54-0.068,0.802c-0.054,0.263-0.075,0.53-0.069,0.802c0.008,0.351,0.031,0.696,0.071,1.036
			c0.039,0.339,0.062,0.681,0.069,1.024l0.02,0.924c-0.013,0.036-0.026,0.103-0.042,0.2c-0.018,0.096-0.032,0.156-0.045,0.178
			c0,0.007-0.004,0.027-0.011,0.059c-0.005,0.033-0.015,0.065-0.023,0.097c-0.011,0.033-0.02,0.065-0.025,0.098
			c-0.007,0.032-0.011,0.052-0.01,0.059c0,0.015,0.005,0.052,0.014,0.113c0.007,0.061,0.017,0.128,0.026,0.204
			c0.007,0.075,0.017,0.146,0.025,0.214c0.008,0.068,0.017,0.116,0.025,0.145c0.023,0.1,0.061,0.177,0.112,0.234
			c0.05,0.057,0.109,0.1,0.175,0.131s0.136,0.053,0.217,0.064c0.078,0.014,0.16,0.029,0.246,0.049
			c0.008,0.015,0.036,0.027,0.083,0.041c0.045,0.014,0.095,0.029,0.146,0.045c0.049,0.018,0.099,0.033,0.146,0.046
			c0.047,0.014,0.077,0.023,0.093,0.03c0.035,0.006,0.102,0.012,0.199,0.018c0.096,0.004,0.2,0.01,0.312,0.014
			c0.111,0.006,0.217,0.01,0.316,0.016c0.102,0.004,0.173,0.006,0.216,0.006c0.064,0.041,0.106,0.084,0.127,0.126
			c0.019,0.042,0.028,0.097,0.029,0.16l0.002,0.097c0.004,0.165-0.023,0.287-0.082,0.367c-0.061,0.08-0.148,0.179-0.269,0.296
			c-0.021,0.001-0.049,0.013-0.086,0.04c-0.034,0.025-0.056,0.038-0.063,0.039h-0.043l-0.053,0.002
			c-0.538-0.025-1.07-0.063-1.599-0.117C227.142,57.46,226.609,57.44,226.072,57.452z"/>
		<path d="M242.289,57.176l-2.276,0.05c-0.021-0.007-0.052-0.018-0.092-0.031c-0.04-0.013-0.085-0.027-0.135-0.045
			c-0.051-0.017-0.096-0.031-0.135-0.045c-0.041-0.014-0.071-0.027-0.093-0.041h-0.054l-0.043,0.002
			c-0.192,0.076-0.381,0.126-0.566,0.151c-0.187,0.026-0.391,0.041-0.612,0.046c-0.129,0.002-0.274-0.003-0.435-0.018
			c-0.163-0.014-0.316-0.049-0.466-0.104c-0.147-0.053-0.272-0.129-0.375-0.228s-0.155-0.233-0.159-0.405
			c-0.003-0.129,0.04-0.249,0.126-0.362c0.088-0.112,0.191-0.181,0.313-0.206c0.036,0,0.107-0.005,0.214-0.015
			c0.107-0.009,0.22-0.019,0.339-0.029c0.117-0.009,0.229-0.019,0.332-0.029c0.104-0.009,0.177-0.015,0.22-0.016
			c0.122-0.024,0.225-0.067,0.31-0.13c0.084-0.062,0.158-0.138,0.221-0.225c0.062-0.087,0.116-0.18,0.16-0.278
			s0.087-0.197,0.128-0.298c-0.008-0.057-0.018-0.161-0.028-0.311c-0.01-0.149-0.018-0.307-0.021-0.472
			c-0.004-0.165-0.003-0.318,0.001-0.462c0.003-0.143,0.009-0.25,0.014-0.323c0-0.028,0.005-0.102,0.018-0.221
			c0.012-0.118,0.022-0.246,0.034-0.382c0.012-0.136,0.022-0.262,0.035-0.376c0.012-0.115,0.018-0.19,0.017-0.226l-0.001-0.032
			v-0.021c-0.001-0.021-0.013-0.064-0.035-0.128c-0.023-0.064-0.035-0.103-0.035-0.118l-0.002-0.075
			c-0.001-0.064,0.009-0.127,0.028-0.188c0.021-0.061,0.029-0.135,0.027-0.221c-0.002-0.093-0.015-0.183-0.038-0.268
			c-0.022-0.085-0.035-0.175-0.037-0.268l-0.004-0.161c0.006-0.036,0.015-0.13,0.026-0.285c0.011-0.154,0.023-0.32,0.037-0.5
			c0.015-0.179,0.025-0.346,0.032-0.5c0.008-0.154,0.011-0.253,0.01-0.296l-0.005-0.226l-0.014-0.655
			c0.011-0.164,0.039-0.323,0.086-0.474s0.068-0.309,0.065-0.474c-0.003-0.122-0.021-0.22-0.055-0.294
			c-0.035-0.075-0.053-0.172-0.055-0.294c-0.002-0.057,0.001-0.113,0.007-0.167c0.006-0.054,0.034-0.106,0.082-0.157l-0.037-1.729
			c0-0.007-0.01-0.036-0.028-0.085c-0.02-0.049-0.036-0.092-0.052-0.128c-0.038-0.085-0.074-0.181-0.107-0.288
			c-0.035-0.106-0.103-0.183-0.204-0.231c-0.021-0.006-0.057-0.02-0.103-0.041c-0.048-0.021-0.1-0.042-0.158-0.066
			c-0.058-0.024-0.114-0.046-0.167-0.066c-0.056-0.021-0.093-0.034-0.114-0.041l-0.634,0.014c-0.451,0.01-0.881,0.032-1.288,0.065
			c-0.407,0.034-0.83,0.056-1.267,0.065l-0.451,0.01c-0.176,0.104-0.326,0.21-0.449,0.315c-0.124,0.107-0.241,0.233-0.353,0.378
			c-0.015,0-0.029,0.019-0.046,0.055c-0.019,0.036-0.033,0.062-0.048,0.076c-0.026,0.08-0.047,0.145-0.061,0.194
			c-0.013,0.051-0.027,0.098-0.045,0.141c-0.017,0.043-0.04,0.085-0.067,0.125s-0.062,0.093-0.104,0.158
			c-0.077,0.103-0.155,0.207-0.234,0.312c-0.081,0.106-0.167,0.207-0.258,0.301c-0.091,0.095-0.193,0.173-0.307,0.232
			c-0.113,0.06-0.238,0.091-0.374,0.094c-0.101,0.002-0.188-0.017-0.265-0.059c-0.075-0.042-0.115-0.126-0.118-0.255l-0.001-0.054
			c-0.001-0.043,0.001-0.105,0.006-0.188c0.006-0.082,0.013-0.167,0.022-0.253c0.008-0.086,0.016-0.167,0.021-0.242
			c0.005-0.075,0.008-0.127,0.007-0.156c0.006-0.036,0.011-0.083,0.013-0.14c0.003-0.057,0.008-0.113,0.013-0.167
			c0.006-0.054,0.013-0.124,0.018-0.21c0.021-0.015,0.063-0.053,0.126-0.115c0.063-0.062,0.102-0.101,0.116-0.116
			c0.006-0.014,0.025-0.061,0.056-0.14c0.031-0.08,0.061-0.166,0.092-0.26c0.029-0.093,0.059-0.182,0.085-0.265
			c0.026-0.083,0.044-0.135,0.051-0.157l-0.009-0.376c0.006-0.079,0.033-0.135,0.083-0.168c0.049-0.033,0.099-0.079,0.147-0.138
			c0.062-0.087,0.118-0.176,0.166-0.267c0.048-0.09,0.104-0.174,0.166-0.251c0.063-0.077,0.137-0.141,0.222-0.192
			s0.192-0.079,0.321-0.082c0.114-0.002,0.222,0.019,0.323,0.063c0.102,0.044,0.2,0.099,0.3,0.165
			c0.097,0.066,0.194,0.132,0.288,0.198c0.095,0.066,0.192,0.12,0.294,0.16c0.015,0.007,0.041,0.012,0.08,0.015
			c0.041,0.003,0.082,0.003,0.125,0.002s0.082-0.001,0.118-0.002s0.058-0.001,0.064-0.001c0.165-0.003,0.306-0.022,0.422-0.058
			c0.119-0.035,0.248-0.054,0.391-0.057c0.294-0.006,0.581,0.016,0.861,0.067c0.281,0.052,0.571,0.074,0.872,0.067
			c0.122-0.002,0.245-0.021,0.369-0.056c0.125-0.035,0.248-0.054,0.37-0.056l0.043-0.001c0.122,0.004,0.277,0.01,0.468,0.017
			s0.377,0.013,0.559,0.02c0.185,0.007,0.344,0.013,0.479,0.017c0.135,0.004,0.21,0.006,0.225,0.006
			c0.007,0,0.032,0.003,0.075,0.009c0.044,0.006,0.089,0.013,0.136,0.019c0.046,0.006,0.091,0.013,0.134,0.019
			c0.044,0.006,0.072,0.009,0.087,0.009l0.064-0.001c0.38-0.008,0.749-0.027,1.111-0.056c0.36-0.029,0.728-0.048,1.1-0.056
			c0.144-0.003,0.284,0.005,0.426,0.023c0.139,0.018,0.285,0.026,0.436,0.022l0.236-0.005c0.208-0.004,0.411-0.016,0.61-0.035
			c0.2-0.019,0.386-0.069,0.556-0.152c0.036-0.001,0.07-0.01,0.102-0.029c0.032-0.019,0.055-0.035,0.068-0.05
			c0.015-0.007,0.05-0.033,0.106-0.077c0.057-0.044,0.118-0.094,0.185-0.149s0.126-0.104,0.18-0.149
			c0.052-0.044,0.086-0.073,0.1-0.087c0.007,0,0.03-0.004,0.07-0.012c0.039-0.008,0.082-0.014,0.129-0.019
			c0.046-0.004,0.095-0.011,0.145-0.019c0.049-0.008,0.089-0.013,0.117-0.014l0.129-0.002c0.114-0.002,0.194,0.044,0.239,0.139
			c0.046,0.096,0.098,0.19,0.157,0.282c0.015,0.021,0.042,0.063,0.084,0.127c0.04,0.063,0.071,0.103,0.093,0.116
			c0,0.007,0.003,0.036,0.007,0.086c0.005,0.05,0.01,0.104,0.016,0.161c0.004,0.058,0.011,0.111,0.019,0.161
			s0.017,0.079,0.023,0.085c0.008,0.021,0.027,0.06,0.057,0.117c0.029,0.057,0.062,0.119,0.095,0.186
			c0.034,0.068,0.067,0.129,0.102,0.186c0.032,0.057,0.057,0.095,0.072,0.117c0,0.015,0.008,0.052,0.023,0.112
			c0.017,0.061,0.03,0.098,0.046,0.112c0.022,0.057,0.063,0.15,0.124,0.282s0.124,0.271,0.191,0.42
			c0.068,0.149,0.134,0.291,0.198,0.425c0.063,0.135,0.106,0.231,0.129,0.288c0.001,0.015,0.003,0.048,0.009,0.102
			c0.004,0.053,0.011,0.112,0.02,0.177c0.008,0.064,0.017,0.125,0.025,0.182c0.008,0.058,0.02,0.096,0.034,0.117l0.002,0.097
			c0.005,0.193-0.074,0.342-0.237,0.445c-0.163,0.104-0.33,0.158-0.502,0.162c-0.028,0-0.071-0.002-0.129-0.008
			c-0.058-0.005-0.093-0.008-0.107-0.008c-0.116-0.098-0.239-0.206-0.367-0.325c-0.128-0.118-0.232-0.252-0.314-0.401
			c-0.128-0.227-0.249-0.452-0.364-0.675c-0.116-0.223-0.251-0.422-0.405-0.599c-0.154-0.175-0.335-0.318-0.541-0.429
			c-0.207-0.109-0.461-0.172-0.762-0.187l-0.375,0.008l-0.945,0.021c-0.029-0.014-0.083-0.032-0.163-0.056
			c-0.079-0.023-0.122-0.035-0.129-0.035l-0.623,0.013l-0.591,0.013c-0.028,0.022-0.089,0.054-0.181,0.095
			c-0.093,0.042-0.153,0.07-0.182,0.084c-0.014,0.015-0.027,0.026-0.042,0.033c-0.021,0.022-0.031,0.036-0.031,0.043
			c-0.006,0.021-0.014,0.062-0.019,0.119c-0.006,0.058-0.013,0.119-0.018,0.183c-0.006,0.064-0.013,0.124-0.018,0.178
			c-0.006,0.054-0.009,0.091-0.009,0.113l0.001,0.043l0.001,0.032c0,0.021,0.005,0.068,0.014,0.14
			c0.008,0.072,0.019,0.15,0.032,0.236c0.012,0.085,0.023,0.165,0.031,0.236c0.009,0.071,0.014,0.114,0.014,0.128l0.004,0.15
			c0.004,0.215-0.004,0.434-0.023,0.656c-0.021,0.223-0.028,0.445-0.023,0.667c0.004,0.208,0.021,0.417,0.052,0.628
			c0.028,0.211,0.046,0.427,0.051,0.649c0.002,0.079-0.025,0.15-0.081,0.216c-0.057,0.065-0.083,0.135-0.082,0.206
			c0.003,0.129,0.021,0.256,0.058,0.38c0.034,0.125,0.053,0.248,0.056,0.369l0.008,0.344c-0.014,0.065-0.024,0.114-0.035,0.146
			c-0.01,0.033-0.021,0.081-0.034,0.146l0.003,0.118l0.005,0.257c-0.006,0.015-0.014,0.043-0.02,0.086
			c-0.006,0.043-0.013,0.088-0.019,0.135s-0.014,0.091-0.024,0.135c-0.009,0.043-0.018,0.072-0.024,0.086
			c-0.044,0.61-0.079,1.215-0.106,1.812c-0.026,0.599-0.032,1.207-0.02,1.822l0.005,0.204c0.002,0.079,0.007,0.154,0.016,0.226
			c0.008,0.071,0.032,0.167,0.07,0.289c0.023,0.064,0.062,0.14,0.117,0.229c0.057,0.088,0.123,0.174,0.199,0.259
			c0.078,0.084,0.158,0.156,0.241,0.215c0.084,0.059,0.165,0.088,0.244,0.086c0.107-0.002,0.211-0.021,0.311-0.055
			c0.1-0.034,0.203-0.053,0.311-0.055c0.122-0.002,0.262,0.005,0.42,0.023c0.157,0.018,0.307,0.054,0.448,0.108
			c0.141,0.054,0.261,0.13,0.359,0.229c0.1,0.099,0.15,0.229,0.153,0.394c0.002,0.072-0.013,0.149-0.043,0.232
			c-0.031,0.083-0.072,0.161-0.123,0.233c-0.054,0.073-0.116,0.137-0.189,0.192c-0.075,0.055-0.154,0.087-0.24,0.096
			c-0.036,0.002-0.099-0.001-0.188-0.006c-0.091-0.006-0.188-0.011-0.292-0.016c-0.104-0.005-0.202-0.01-0.295-0.016
			c-0.094-0.005-0.158-0.011-0.194-0.017c-0.028,0.001-0.08-0.011-0.157-0.034C242.381,57.187,242.325,57.175,242.289,57.176z"/>
	</g>
</g>
</svg>
