<?xml version="1.0" encoding="utf-8"?>
<!-- Generator: Adobe Illustrator 16.0.0, SVG Export Plug-In . SVG Version: 6.00 Build 0)  -->
<!DOCTYPE svg PUBLIC "-//W3C//DTD SVG 1.1//EN" "http://www.w3.org/Graphics/SVG/1.1/DTD/svg11.dtd">
<svg version="1.1" xmlns="http://www.w3.org/2000/svg" xmlns:xlink="http://www.w3.org/1999/xlink" x="0px" y="0px"
	 width="403.286px" height="621.571px" viewBox="0 0 403.286 621.571" enable-background="new 0 0 403.286 621.571"
	 xml:space="preserve">
<g id="Layer_1">
</g>
<g id="Layer_2">
	<path fill="#B0AFB0" d="M22.379,606.857L15.125,311.41l-0.397-13.449l-0.16-13.073l1.302-109.349l6.51-15.188l-3.905-18.224
		l6.809-23.5L36.7,99.603c0,0,95.034-119.979,201.785-91.123l29.19,41.667l74.214,26l24.175,43.2c0,0,19.528,28.856,22.131,57.712
		c2.604,28.855,2.604,136.686,2.604,136.686l-9.112,30.374l10.414,15.187L390.8,582.559l-20.829,27.336L22.379,606.857z"/>
	<g>
		<path fill="#D3D3D3" d="M15.346,291.961l4.414-149.815l12.077-21.519l19.588-33.481c0,0,53.987-54.774,107.362-73
			c53.376-18.225,80.646,7,80.646,7l12.737,34.814l68.236,25.021l43.211,89.164l-3.461,157.757l-7.81,25.819l10.414,21.262
			l2.604,229.834l-341.083-1.52l-8.44-303.338L15.346,291.961z"/>
	</g>
</g>
</svg>
