<?xml version="1.0" encoding="utf-8"?>
<!-- Generator: Adobe Illustrator 16.0.0, SVG Export Plug-In . SVG Version: 6.00 Build 0)  -->
<!DOCTYPE svg PUBLIC "-//W3C//DTD SVG 1.1//EN" "http://www.w3.org/Graphics/SVG/1.1/DTD/svg11.dtd">
<svg version="1.1" xmlns="http://www.w3.org/2000/svg" xmlns:xlink="http://www.w3.org/1999/xlink" x="0px" y="0px"
	 width="440.429px" height="641.571px" viewBox="0 0 440.429 641.571" enable-background="new 0 0 440.429 641.571"
	 xml:space="preserve">
<g id="Layer_1">
</g>
<g id="Layer_2">
	<g>
		<path fill="#B0AFB0" d="M13.975,638.675L0.476,321.71l25.499-1.608l-21-22.525l1.5-115.845l7.5-16.09l-4.5-19.307l35.998-9.654
			l-14.998-35.397c0,0,109.494-127.107,232.488-96.537c122.993,30.57,148.492,88.492,148.492,88.492l-1.5,28.961
			c0,0,22.498,30.57,25.498,61.141c3,30.57,3,144.805,3,144.805l-10.499,32.18l11.999,16.09l-1.5,236.517l-23.998,28.961
			L13.975,638.675z"/>
		<g>
			<path fill="#D3D3D3" d="M16.975,634.199l392.98,1.609l-3-243.488l-11.998-22.525l8.998-27.354V196.026L361.957,91.444
				l-77.996-72.403c0,0-40.496-32.18-101.994-12.872C120.471,25.478,40.975,97.88,40.975,97.88l7.498,43.442l-38.998,5.012
				L4.976,287.923l31.499,25.557l-35.998,9.654L16.975,634.199z"/>
		</g>
	</g>
</g>
</svg>
