<?xml version="1.0" encoding="utf-8"?>
<!-- Generator: Adobe Illustrator 16.0.0, SVG Export Plug-In . SVG Version: 6.00 Build 0)  -->
<!DOCTYPE svg PUBLIC "-//W3C//DTD SVG 1.1//EN" "http://www.w3.org/Graphics/SVG/1.1/DTD/svg11.dtd">
<svg version="1.1" xmlns="http://www.w3.org/2000/svg" xmlns:xlink="http://www.w3.org/1999/xlink" x="0px" y="0px"
	 width="403.286px" height="538.714px" viewBox="0 0 403.286 538.714" enable-background="new 0 0 403.286 538.714"
	 xml:space="preserve">
<g id="Layer_1">
</g>
<g id="Layer_2">
	<path fill="#B0AFB0" d="M17.104,531.222l7.837-217.283l22.976-1.338l-18.922-18.736L10.346,151.156l6.758-13.383l-4.055-16.059
		l32.435-8.029L31.97,84.243c0,0,98.657-105.722,209.478-80.295c110.82,25.427,133.795,73.604,133.795,73.604l-1.352,24.089
		c0,0,20.271,25.427,22.975,50.854s-17.297,55.548-17.297,55.548l-9.46,26.765l10.812,13.382l18.648,261.619l-21.623,24.089
		L17.104,531.222z"/>
	<g>
		<path fill="#D3D3D3" d="M13.807,527.499l354.084,1.338l-22.702-267.418l-10.811-18.736l8.107-22.75l20-56.886L324.644,76.06
			l-70.276-60.222c0,0-36.487-26.766-91.899-10.706C107.059,21.191,35.431,81.413,35.431,81.413l6.756,36.133l-35.138,4.169
			l25.946,173.392l12.952,16.309l-17.006,12.979L13.807,527.499z"/>
	</g>
</g>
</svg>
