<?xml version="1.0" encoding="utf-8"?>
<!-- Generator: Adobe Illustrator 16.0.0, SVG Export Plug-In . SVG Version: 6.00 Build 0)  -->
<!DOCTYPE svg PUBLIC "-//W3C//DTD SVG 1.1//EN" "http://www.w3.org/Graphics/SVG/1.1/DTD/svg11.dtd">
<svg version="1.1" id="Layer_1" xmlns="http://www.w3.org/2000/svg" xmlns:xlink="http://www.w3.org/1999/xlink" x="0px" y="0px"
	 width="633.063px" height="1008.82px" viewBox="0 0 633.063 1008.82" enable-background="new 0 0 633.063 1008.82"
	 xml:space="preserve">
<path fill="#0F8345" d="M239.441,221.41c0,0-154,24-106,372l28,126l278,10c0,0,36-124,24-202s-12-272-96-294"/>
<path fill="#382712" d="M257.441,120.41c0,0-27-5-33,2c0,0-11-60,52-82c0,0-2-7-7-8l11,7l11-9l-5,10c0,0,14-8,30-8s31-4,31-4l-17,9
	c0,0,16-6,21,0s24,12,24,12s19,8,19,15s-8,9-8,9l-1-7l-4,7c0,0,23,9,15,54l-8,7"/>
<path fill="#D59B75" d="M275.441,93.41c0,0,84-28,102-4s14,40,14,40s0,100-46,134c0,0-16,18-64-24c0,0-18-18-20-44s-4-88-4-88
	L275.441,93.41z"/>
<path fill="#D59B75" d="M241.441,245.41l2-46c0,0-24-34-18-48s32,14,32,14l110,92c0,0-18,38-74,40S241.441,253.41,241.441,245.41z"
	/>
<path fill="#F5A61D" d="M139.441,425.41c0,0-26-134,140-74c0,0,107.867-35.286,132,28c19.567,51.314,42,136-4,286l-150,42l-68-4
	l-34-106l-6-36L139.441,425.41z"/>
<path fill="#F9B341" d="M274.814,481.116l4.5,97.495c0,0-104.995,12-106.495,4.5s-4.5-20.999-4.5-20.999l-3-44.998L274.814,481.116z
	"/>
<polygon fill="#F9B341" points="301.812,479.616 405.307,478.116 402.308,562.112 306.312,581.611 "/>
<path fill="#7CBE42" d="M561.441,754.744l22,8.666c0,0-16.667,4.668-28.667-3.999S561.441,754.744,561.441,754.744z"/>
<path fill="#D59B75" d="M517.441,695.41l-33.999,0.667l-10.667,16l-12.666,23.333l4,11.333l7.333,7.333l7.333-0.667l5.334-14
	l-3.334,18.667l5.334,5.333h7.333l1.559-2.026l5.108-6.64l5.333-10l-8,18.667l5.333,7.333l8,1.333l2.667-2l0.31-0.454l11.023-16.213
	l-8.666,18.667l7.333,6l7.333-4l6.667-9.333l3.333-5.333h11.334c0,0,9.999-2.666,14.666-13.333s10-18,10-18
	S555.44,694.743,517.441,695.41z"/>
<path fill="#7CBE42" d="M241.441,245.41c0,0-14-6-50,10c0,0-108,16-126,116c0,0-68,62-54,106c0,0,8,72,44,82l162-6c0,0,22-14,22-28
	s-30-4-30-4s8-60,16-60l-92,6l6-42c0,0-26-132,140-74c0,0,114-34,140,42c0,0,30,116-12,272l30,54l4-238l76,122l8,12c0,0-12,26,0,44
	s-8,36-8,36s72,8,66,68l34-86c0,0,20-62-2-100c0,0,24-52-40-96c0,0,6-98-72-136l-136-88
	C367.441,257.41,271.441,345.41,241.441,245.41z"/>
<path fill="#572C0F" d="M141.441,631.41l59.186,67h22.407l34.63,8l152.777-42l52-44l-19.407,110c0,0,24.444,32-156.852,50
	l28.519,184l-71.297,16l-2.037-140l-20.37,134l-26.481-28l-28.519-8l20.37-78l24.444-78l-4.073-12l-30.556-16l-12.223-26
	L141.441,631.41z"/>
<path fill="#F3C170" d="M233.441,701.41c0,0-48,6-38,52c0,0,12,40,44,38s40-16,40-42S251.441,701.41,233.441,701.41z"/>
<path fill="#D59B75" d="M218.775,467.411l46-24.667c0,0,19.334-18.667,34.667,7.333c0,0,7.999,5.333,8.666,8l8.667,12
	c0,0,3.333,12-6,9.333s-12-13.333-12-13.333s15.334,17.333,13.334,20s-6.667,8.667-6.667,8.667l-12-11.333
	c0,0,18.666,18.667,13.333,24.667l-6.666,2.667l-13.334-8.667l12,14.667c0,0-1.333,6.667-7.333,7.333s-23.333-3.333-23.333-3.333
	l-30.668,6.666l-28.666-7.333L218.775,467.411z"/>
<path fill="#EF3C24" d="M395.441,132.41l-81-7c-84-11-90-3-90-3v32c0,0,0,0,6-5s27,16,27,16l43,23c16,3,41-8,41-8l9,3
	c35,16,42-2,42-2C396.441,172.41,395.441,132.41,395.441,132.41z M323.441,162.41c0,0-21,14-30-14
	C293.441,148.41,329.441,146.41,323.441,162.41z M388.441,158.41c-1,9-16,13-16,13c-16,0-6-14-6-14s4-2,7-3
	S389.441,149.41,388.441,158.41z"/>
<path fill="#F9B341" d="M271.814,364.122c0,0-82.495-26.999-98.995,0s-24,19.5-18,52.498s19.499,37.498,19.499,37.498l71.997-7.5
	l34.499-7.5L271.814,364.122z"/>
<path fill="#F9B341" d="M289.813,365.622l6,77.996l37.498,19.499l79.496-10.5l-11.999-65.997c0,0-41.998-25.499-62.997-25.499
	S289.813,365.622,289.813,365.622z"/>
<polygon fill="#F9B341" points="304.812,596.61 306.312,679.106 382.809,664.107 400.808,587.611 "/>
<polygon fill="#F9B341" points="276.314,599.61 180.319,604.11 204.317,686.606 246.315,695.605 279.314,692.605 288.313,671.607 
	"/>
</svg>
