<?xml version="1.0" encoding="utf-8"?>
<!-- Generator: Adobe Illustrator 16.0.0, SVG Export Plug-In . SVG Version: 6.00 Build 0)  -->
<!DOCTYPE svg PUBLIC "-//W3C//DTD SVG 1.1//EN" "http://www.w3.org/Graphics/SVG/1.1/DTD/svg11.dtd">
<svg version="1.1" xmlns="http://www.w3.org/2000/svg" xmlns:xlink="http://www.w3.org/1999/xlink" x="0px" y="0px"
	 width="741.829px" height="975.817px" viewBox="0 0 741.829 975.817" enable-background="new 0 0 741.829 975.817"
	 xml:space="preserve">
<g id="Layer_1">
	<path fill="#ADA294" d="M186.98,111.993c0,0,70-18,72-6s24,26,24,26s18,0,18,14s4,28,4,28s20,40,20,60l38,4l8,28l2,154l-6,34
		l-60-70l-52-50l-24-28l-32-30l-12-16l-34-26l-16-36v-48L186.98,111.993z"/>
	<path fill="#ADA294" d="M49.98,513.993c0,0-35,64-40,116s34,126,34,126l8,20l-6,38l-4,34l-6,36l10,52l8-10l-2-26l7-24h4v10v18l1,11
		l7,31l5,13h7l2-7l-3-25v-16v-24l3-6l2,6v12l5,17l3,33l3,12l7,4l9-5v-19l-2-20l-5-40l2-4h5l6,12l7,19v15v18l6,7l9-3l1-19l1-17v-17
		l-6-29c0,0-1-26,5-25s9,8,9,8l14,23l15,12l10,1l-10-21v-12l-12-13l-4-21l-17-11l-36-40l-13-52v-22l1-32v-15l-21-122l0,0l-25-8"/>
	<path fill="#ADA294" d="M617.98,441.993c0,0,69,89,69,101s23,85,23,85l4,32l20,57l-8,36l-7-10l2,20l-4,11l-8-28l3,31l-13,6l-5-30
		c0,0,9,59,8,62s-12,8-12,8l-9-19l-18-65l-7-9c0,0,2,37-20,51l-9-1l8-25l1-21c0,0-4-25,0-29s18-64,18-64s-67-52-64-96l-13-35
		L617.98,441.993z"/>
	<path fill="#B2A68A" d="M144.196,52.139c0,0,70.496-64.495,109.494-35.998c0,0-16.499-4.501-25.499,4.499s29.999-1.5,34.499,13.499
		c0,0-19.5-6-26.999,1.5c0,0,46.498,9,47.998,28.499L250.69,52.139c0,0,47.998,26.997,44.998,47.996
		c0,0-31.499-31.498-41.998-31.498c0,0,27,26.998,28.499,41.998l-28.499-6l-82.496,22.499l-34.499,40.498
		c0,0,3.57,71.226,21.284,69.361c0,0-39.283-9.364-37.783-46.862c0,0,1.5,43.498,15,53.998c0,0-52.498-25.499-34.499-64.497
		c0,0-19.499,31.499-7.5,41.998c0,0-23.999-53.998-13.5-73.497c0,0-10.5,21-7.5,35.999c0,0-22.5-35.998-13.5-46.498
		c0,0-22.499-4.5-22.499,16.499c0,0,4.5-37.498,25.499-35.998c0,0,6-16.5-10.5-16.5c0,0,26.999-17.999,40.498-17.999l-25.499-16.5
		C66.199,67.136,126.197,47.64,144.196,52.139z"/>
	<path fill="#D7D0B8" d="M179.694,113.636c0,0,65.997-28.498,82.496-25.499s-47.998,3-47.998,3l49.498-14.999
		c0,0-28.498,0-44.998,4.5s26.999-28.499,26.999-28.499s-43.498,6-47.998,22.499s3-41.998,3-41.998s-32.998,38.999-31.498,43.498
		s-34.499-29.999-52.498-10.5c0,0,29.998,1.5,35.998,13.499s-56.997,6-56.997,6s37.498,10.499,38.998,14.999
		s-59.998,26.999-41.998,53.998c0,0,35.999-37.499,55.498-35.999s-26.999,55.498-26.999,55.498L179.694,113.636z"/>
	<path fill="#F4F1ED" d="M238.19,188.63c0,0,10.5-23.999,23.999-22.499C262.189,166.131,268.188,185.631,238.19,188.63z"/>
	<path fill="#F4F1ED" d="M188.692,226.128c0,0,10.5-23.999,23.999-22.499C212.691,203.629,218.69,223.129,188.692,226.128z"/>
	<path fill="#313632" d="M253.189,272.626c0,0,22.499-34.499,44.998-29.999C298.187,242.627,271.188,272.626,253.189,272.626z"/>
	<path fill="#9D958B" d="M326.98,232.993c0,0-11.793,64.132-52.291,65.632c0,0,70.496-10.499,70.496-25.499
		S326.98,232.993,326.98,232.993z"/>
	<path fill="#AE1F33" d="M295.187,244.127c0,0,6,7.5,6,43.498s16.499,25.499,16.499,25.499L295.187,244.127z"/>
	<polygon fill="#CECDCD" points="213.98,291.993 229.191,778.102 260.69,769.103 272.689,808.101 304.188,758.603 320.687,821.6 
		344.686,757.104 373.184,818.6 382.184,758.603 412.182,790.102 407.683,745.104 427.182,734.604 436.181,779.602 443.681,739.104 
		475.179,787.102 466.179,722.605 494.678,758.603 488.678,704.606 520.177,742.104 521.677,713.605 451.18,442.119 
		406.183,338.624 410.682,262.128 362.98,237.993 368.685,359.623 362.685,398.621 350.686,412.121 341.686,425.62 293.688,359.623 
			"/>
	<polygon fill="#7C7872" points="191.693,268.128 152.695,304.126 152.695,316.125 130.196,316.125 124.196,337.125 
		100.198,380.622 77.699,446.619 62.699,475.118 62.699,496.117 52.2,509.616 77.98,524.993 98.98,646.993 121.196,610.111 
		128.696,575.612 146.695,542.614 157.195,523.115 158.695,502.116 169.194,497.616 169.194,473.618 173.694,454.119 
		173.694,511.116 181.193,641.609 193.193,731.604 191.693,749.604 173.694,770.603 160.194,808.101 170.694,827.6 187.193,854.598 
		197.693,856.098 200.693,874.097 211.192,856.098 211.192,881.597 214.192,911.595 221.691,940.094 239.691,859.098 
		254.69,836.599 254.69,776.602 260.689,739.104 260.69,689.606 275.689,638.609 278.689,571.112 278.689,517.115 278.689,463.118 
		280.189,413.62 260.69,395.621 250.19,364.123 233.691,317.625 226.191,304.125 	"/>
	<polygon fill="#7C7872" points="322.98,224.993 449.68,244.128 491.678,248.628 527.676,287.626 554.675,325.125 571.174,365.623 
		601.173,401.621 608.672,422.62 617.98,441.993 578.673,515.615 589.98,544.993 587.673,578.612 583.173,610.11 559.175,650.608 
		556.175,614.61 550.175,593.611 553.175,562.113 553.175,533.614 553.175,514.115 565.175,509.615 548.675,500.616 
		523.177,457.118 496.178,428.62 506.677,455.618 509.677,518.615 515.677,548.613 527.676,590.611 527.676,628.109 
		541.175,673.107 548.675,697.106 550.175,716.605 551.675,757.103 544.175,790.102 530.676,748.104 526.177,712.105 
		512.677,691.106 496.178,629.609 482.679,553.113 457.18,464.618 442.181,448.119 427.182,412.12 409.183,376.122 406.183,341.624 
		406.183,307.125 410.682,283.126 394.183,262.128 362.98,237.993 326.98,232.993 	"/>
	<polygon fill="#AE1F33" points="383.683,475.118 383.683,487.118 383.683,509.617 395.683,526.116 398.683,508.117 	"/>
	<polygon fill="#AE1F33" points="355.185,563.614 355.185,599.612 361.185,599.612 	"/>
	<polygon fill="#AE1F33" points="445.18,656.609 448.181,695.606 457.179,701.606 	"/>
</g>
<g id="Layer_2">
</g>
</svg>
